<?xml version="1.0" standalone="no"?>
<!DOCTYPE svg PUBLIC "-//W3C//DTD SVG 20010904//EN"
 "http://www.w3.org/TR/2001/REC-SVG-20010904/DTD/svg10.dtd">
<svg version="1.0" xmlns="http://www.w3.org/2000/svg"
 width="850.000000pt" height="528.000000pt" viewBox="0 0 850.000000 528.000000"
 preserveAspectRatio="xMidYMid meet">

<g transform="translate(0.000000,528.000000) scale(0.100000,-0.100000)"
fill="#000000" stroke="none">
<path d="M2 2643 l-2 -2643 4253 2 4252 3 -4247 2 -4248 3 -3 2638 -2 2637 -3
-2642z"/>
<path d="M323 5273 c9 -2 25 -2 35 0 9 3 1 5 -18 5 -19 0 -27 -2 -17 -5z"/>
<path d="M5783 5273 c9 -2 23 -2 30 0 6 3 -1 5 -18 5 -16 0 -22 -2 -12 -5z"/>
<path d="M1480 4960 l0 -90 65 0 c51 0 65 3 65 15 0 11 -12 15 -50 15 -47 0
-50 2 -50 25 0 23 4 25 45 25 33 0 45 4 45 15 0 11 -12 15 -45 15 -38 0 -45 3
-45 20 0 17 7 20 50 20 38 0 50 4 50 15 0 12 -14 15 -65 15 l-65 0 0 -90z"/>
<path d="M1679 5040 c-25 -15 -42 -65 -35 -105 8 -40 38 -65 81 -65 35 0 48 8
63 36 10 18 9 23 -8 27 -13 3 -21 -1 -25 -14 -7 -21 -44 -26 -63 -7 -7 7 -12
28 -12 48 0 20 5 41 12 48 17 17 55 15 66 -4 7 -12 14 -14 27 -7 17 10 16 12
-4 32 -22 22 -73 28 -102 11z"/>
<path d="M1849 5031 c-20 -16 -24 -29 -24 -71 0 -42 4 -55 24 -71 33 -27 92
-25 119 4 31 33 31 105 -1 135 -29 28 -86 29 -118 3z m101 -43 c13 -25 13 -31
0 -55 -17 -31 -53 -41 -76 -23 -17 15 -19 81 -2 98 21 21 61 10 78 -20z"/>
<path d="M2020 4960 c0 -72 3 -90 15 -90 10 0 15 15 17 58 l3 57 33 -57 c23
-39 40 -58 53 -58 17 0 19 8 19 90 0 73 -3 90 -15 90 -12 0 -15 -14 -15 -62
l0 -63 -38 62 c-22 38 -44 63 -54 63 -16 0 -18 -11 -18 -90z"/>
<path d="M2229 5031 c-20 -16 -24 -29 -24 -71 0 -42 4 -55 24 -71 33 -27 92
-25 119 4 31 33 31 105 -1 135 -29 28 -86 29 -118 3z m101 -43 c13 -25 13 -31
0 -55 -17 -31 -53 -41 -76 -23 -17 15 -19 81 -2 98 21 21 61 10 78 -20z"/>
<path d="M2400 4961 c0 -74 3 -91 15 -91 12 0 15 15 16 68 l1 67 17 -65 c13
-51 21 -65 36 -65 15 0 23 14 36 65 l17 65 1 -67 c1 -53 4 -68 16 -68 12 0 15
17 15 91 l0 90 -27 -3 c-25 -3 -30 -10 -44 -63 l-16 -60 -14 60 c-13 53 -18
60 -42 63 l-27 3 0 -90z"/>
<path d="M2610 4960 c0 -73 3 -90 15 -90 12 0 15 17 15 90 0 73 -3 90 -15 90
-12 0 -15 -17 -15 -90z"/>
<path d="M2709 5040 c-25 -15 -42 -65 -35 -105 8 -40 38 -65 81 -65 35 0 48 8
63 36 10 18 9 23 -8 27 -13 3 -21 -1 -25 -14 -7 -21 -44 -26 -63 -7 -16 16
-16 80 0 96 17 17 55 15 66 -4 7 -12 14 -14 27 -7 17 10 16 12 -4 32 -22 22
-73 28 -102 11z"/>
<path d="M2930 4960 l0 -90 58 0 c44 0 63 5 75 18 22 24 21 49 -2 64 -16 10
-17 14 -5 25 37 37 2 73 -72 73 l-54 0 0 -90z m100 40 c0 -16 -7 -20 -35 -20
-28 0 -35 4 -35 20 0 16 7 20 35 20 28 0 35 -4 35 -20z m5 -75 c0 -16 -8 -21
-37 -23 -35 -3 -38 -1 -38 23 0 24 3 26 38 23 29 -2 37 -7 37 -23z"/>
<path d="M3149 5023 c-60 -156 -59 -153 -39 -153 10 0 22 9 25 20 5 15 15 20
45 20 29 0 39 -4 43 -20 3 -12 14 -20 26 -20 23 0 26 -11 -34 138 -20 50 -50
57 -66 15z m46 -60 c5 -19 2 -23 -14 -23 -23 0 -24 3 -15 38 7 26 18 20 29
-15z"/>
<path d="M3290 4960 l0 -90 84 0 c76 0 85 2 91 20 5 15 15 20 45 20 29 0 39
-4 43 -20 3 -12 14 -20 26 -20 23 0 26 -11 -34 138 -28 68 -51 56 -91 -48 -18
-47 -33 -79 -33 -72 -1 8 -17 12 -46 12 l-45 0 0 75 c0 68 -2 75 -20 75 -19 0
-20 -7 -20 -90z m235 3 c5 -19 2 -23 -14 -23 -23 0 -24 3 -15 38 7 26 18 20
29 -15z"/>
<path d="M3620 4960 c0 -72 3 -90 15 -90 10 0 15 15 17 58 l3 57 33 -57 c23
-39 40 -58 53 -58 17 0 19 8 19 90 0 73 -3 90 -15 90 -12 0 -15 -14 -15 -62
l0 -63 -38 62 c-22 38 -44 63 -54 63 -16 0 -18 -11 -18 -90z"/>
<path d="M3829 5040 c-25 -15 -42 -65 -35 -105 8 -40 38 -65 81 -65 35 0 48 8
63 36 10 18 9 23 -8 27 -13 3 -21 -1 -25 -14 -7 -21 -44 -26 -63 -7 -16 16
-16 80 0 96 17 17 55 15 66 -4 7 -12 14 -14 27 -7 17 10 16 12 -4 32 -22 22
-73 28 -102 11z"/>
<path d="M3980 4960 l0 -90 65 0 c51 0 65 3 65 15 0 11 -12 15 -50 15 -47 0
-50 2 -50 25 0 23 4 25 45 25 33 0 45 4 45 15 0 11 -12 15 -45 15 -38 0 -45 3
-45 20 0 17 7 20 50 20 38 0 50 4 50 15 0 12 -14 15 -65 15 l-65 0 0 -90z"/>
<path d="M4231 5036 c-7 -8 -11 -27 -9 -43 2 -23 11 -30 48 -43 51 -18 60 -43
17 -48 -18 -2 -29 2 -33 12 -7 19 -44 21 -44 3 0 -25 36 -47 76 -47 47 0 64
14 64 52 0 30 -25 52 -72 63 -16 4 -28 11 -28 16 0 16 32 23 51 11 22 -14 49
-16 49 -4 0 35 -95 57 -119 28z"/>
<path d="M4390 4960 c0 -73 3 -90 15 -90 11 0 15 11 15 40 l0 40 40 0 40 0 0
-40 c0 -29 4 -40 15 -40 12 0 15 17 15 90 0 73 -3 90 -15 90 -10 0 -15 -11
-15 -35 0 -34 -1 -35 -40 -35 -39 0 -40 1 -40 35 0 24 -5 35 -15 35 -12 0 -15
-17 -15 -90z"/>
<path d="M4570 4960 l0 -90 65 0 c51 0 65 3 65 15 0 11 -12 15 -50 15 -47 0
-50 2 -50 25 0 23 4 25 45 25 33 0 45 4 45 15 0 11 -12 15 -45 15 -38 0 -45 3
-45 20 0 17 7 20 50 20 38 0 50 4 50 15 0 12 -14 15 -65 15 l-65 0 0 -90z"/>
<path d="M4730 4960 l0 -90 65 0 c51 0 65 3 65 15 0 11 -12 15 -50 15 -47 0
-50 2 -50 25 0 23 4 25 45 25 33 0 45 4 45 15 0 11 -12 15 -45 15 -38 0 -45 3
-45 20 0 17 7 20 50 20 38 0 50 4 50 15 0 12 -14 15 -65 15 l-65 0 0 -90z"/>
<path d="M4890 5035 c0 -9 9 -15 25 -15 24 0 25 -2 25 -75 0 -60 3 -75 15 -75
12 0 15 15 15 75 l0 75 30 0 c20 0 30 5 30 15 0 12 -14 15 -70 15 -56 0 -70
-3 -70 -15z"/>
<path d="M5320 4350 l0 -280 1445 0 1445 0 0 280 0 280 -1445 0 -1445 0 0
-280z m597 165 c8 -22 -4 -30 -21 -16 -8 7 -25 11 -38 9 -20 -3 -23 -9 -23
-43 0 -35 3 -40 24 -43 15 -2 30 3 37 13 16 22 28 2 14 -25 -8 -14 -21 -20
-45 -20 -28 0 -37 6 -50 30 -19 37 -19 60 1 88 19 27 91 32 101 7z m152 -16
c28 -50 -6 -109 -64 -109 -28 0 -35 5 -49 35 -30 62 -4 108 58 103 31 -2 44
-9 55 -29z m68 -16 l20 -48 14 48 c7 26 19 47 26 47 17 0 16 -5 -3 -65 -9 -27
-18 -56 -20 -62 -2 -7 -12 -13 -23 -13 -15 0 -23 11 -32 43 -6 23 -15 54 -20
70 -14 47 15 32 38 -20z m203 37 c0 -5 -18 -10 -40 -10 -29 0 -40 -4 -40 -15
0 -10 11 -15 35 -15 19 0 35 -4 35 -10 0 -5 -16 -10 -35 -10 -28 0 -35 -4 -35
-20 0 -17 7 -20 40 -20 29 0 40 -4 40 -15 0 -11 -12 -15 -50 -15 l-50 0 0 70
0 70 50 0 c28 0 50 -4 50 -10z m138 -18 c2 -13 -2 -30 -9 -38 -9 -12 -9 -20 1
-39 7 -14 17 -25 20 -25 8 0 37 72 42 105 2 13 12 21 30 23 23 3 28 -1 34 -25
3 -15 12 -45 20 -66 17 -46 17 -47 -1 -47 -8 0 -15 7 -15 15 0 10 -11 15 -35
15 -24 0 -35 -5 -35 -15 0 -10 -10 -15 -33 -15 -25 0 -39 7 -55 30 -13 17 -29
30 -37 30 -10 0 -15 -10 -15 -30 0 -16 -4 -30 -10 -30 -6 0 -10 30 -10 71 l0
70 53 -3 c46 -3 52 -6 55 -26z m290 6 c2 -11 -3 -18 -12 -18 -9 0 -16 5 -16
10 0 14 -43 13 -58 -2 -29 -29 -7 -78 35 -78 14 0 23 6 23 15 0 8 -4 15 -10
15 -5 0 -10 5 -10 10 0 6 14 10 30 10 27 0 30 -3 30 -30 0 -35 -23 -50 -74
-50 -20 0 -36 2 -36 4 0 2 -6 19 -14 37 -12 29 -12 39 0 67 13 32 16 33 61 30
36 -2 49 -7 51 -20z m142 12 c0 -5 -18 -10 -40 -10 -29 0 -40 -4 -40 -15 0
-10 11 -15 35 -15 19 0 35 -4 35 -10 0 -5 -16 -10 -35 -10 -28 0 -35 -4 -35
-20 0 -17 7 -20 40 -20 29 0 40 -4 40 -15 0 -11 -12 -15 -50 -15 l-50 0 0 70
0 70 50 0 c28 0 50 -4 50 -10z m188 -18 c2 -13 -1 -29 -7 -36 -7 -8 -6 -20 4
-40 18 -35 18 -36 1 -36 -8 0 -23 14 -33 30 -9 17 -23 30 -30 30 -8 0 -13 -12
-13 -30 0 -20 -5 -30 -15 -30 -12 0 -15 15 -15 71 l0 70 53 -3 c46 -3 52 -6
55 -26z m112 26 c0 -2 11 -33 24 -70 18 -54 20 -68 9 -68 -7 0 -16 7 -19 15
-4 8 -18 15 -34 15 -16 0 -30 -7 -34 -15 -6 -17 -36 -21 -36 -5 0 6 9 28 20
50 11 22 20 48 20 60 0 15 7 20 25 20 14 0 25 -1 25 -2z m150 -8 c0 -5 -9 -10
-20 -10 -18 0 -20 -7 -20 -60 0 -47 -3 -60 -15 -60 -12 0 -15 13 -15 60 0 53
-2 60 -20 60 -11 0 -20 5 -20 10 0 6 25 10 55 10 30 0 55 -4 55 -10z m50 -60
c0 -63 -2 -70 -20 -70 -18 0 -20 7 -20 70 0 63 2 70 20 70 18 0 20 -7 20 -70z
m141 54 c19 -23 16 -80 -6 -104 -19 -21 -69 -27 -93 -12 -18 12 -26 72 -13
105 9 24 16 27 55 27 28 0 48 -6 57 -16z m179 -29 c0 -11 -12 -15 -45 -15 -33
0 -45 4 -45 15 0 11 12 15 45 15 33 0 45 -4 45 -15z m0 -40 c0 -11 -12 -15
-45 -15 -33 0 -45 4 -45 15 0 11 12 15 45 15 33 0 45 -4 45 -15z m-1927 -212
c29 -70 28 -85 -3 -65 -11 7 -29 12 -40 12 -11 0 -29 -5 -40 -12 -10 -7 -22
-10 -25 -7 -10 11 50 139 65 139 9 0 26 -26 43 -67z m287 52 c0 -8 -9 -15 -20
-15 -11 0 -20 7 -20 15 0 8 9 15 20 15 11 0 20 -7 20 -15z m50 -55 c0 -56 -3
-70 -15 -70 -12 0 -15 14 -15 70 0 56 3 70 15 70 12 0 15 -14 15 -70z m170 45
c0 -17 4 -23 14 -19 26 10 56 -15 56 -46 0 -33 -40 -68 -62 -54 -7 5 -21 7
-30 6 -16 -3 -18 6 -18 67 0 64 2 71 20 71 15 0 20 -7 20 -25z m120 -45 c0
-63 -2 -70 -20 -70 -18 0 -20 7 -20 70 0 63 2 70 20 70 18 0 20 -7 20 -70z
m294 54 c9 -8 16 -20 16 -25 0 -12 -27 -12 -35 1 -10 17 -44 11 -55 -9 -13
-25 4 -71 26 -71 9 0 22 7 29 17 12 16 35 11 35 -8 0 -14 -61 -38 -79 -31 -52
18 -68 80 -31 120 24 26 72 29 94 6z m296 1 c0 -8 -7 -15 -15 -15 -8 0 -15 7
-15 15 0 8 7 15 15 15 8 0 15 -7 15 -15z m64 -64 c2 -39 2 -71 0 -71 -22 0
-34 17 -34 50 0 21 -6 41 -12 44 -10 5 -10 7 0 12 6 3 12 12 12 19 0 12 20 26
28 20 1 -1 4 -34 6 -74z m166 9 c0 -56 -3 -70 -15 -70 -12 0 -15 14 -15 70 0
56 3 70 15 70 12 0 15 -14 15 -70z m120 55 c0 -30 -33 -135 -43 -135 -10 0 -3
49 15 113 11 37 28 51 28 22z m165 -7 c14 -21 14 -23 -2 -27 -9 -2 -19 2 -21
8 -5 14 -42 15 -42 1 0 -5 8 -10 18 -10 26 0 62 -29 62 -50 0 -27 -38 -51 -69
-43 -35 8 -45 18 -37 39 6 16 7 16 19 -1 14 -18 48 -18 48 0 1 9 -9 16 -51 35
-20 9 -25 50 -8 61 25 16 66 10 83 -13z m136 12 c20 -11 27 -40 9 -40 -6 0
-19 5 -29 12 -32 20 -53 3 -49 -39 3 -43 33 -58 54 -28 7 9 17 14 23 10 17
-10 13 -23 -12 -40 -35 -22 -84 -3 -92 36 -17 74 34 121 96 89z m147 -2 c16
-16 15 -38 -3 -58 -13 -15 -13 -19 5 -38 25 -26 25 -32 2 -32 -11 0 -24 11
-30 25 -7 15 -20 25 -32 25 -15 0 -20 -7 -20 -25 0 -14 -4 -25 -10 -25 -6 0
-10 30 -10 70 l0 70 43 0 c24 0 48 -5 55 -12z m-1949 -64 l15 -29 9 33 c6 17
16 32 22 32 10 0 9 -12 -3 -50 -21 -62 -44 -66 -66 -10 -9 22 -16 45 -16 51 0
20 25 3 39 -27z m155 24 c3 -7 7 -30 10 -52 4 -33 3 -38 -13 -33 -10 2 -25 1
-32 -4 -17 -10 -49 7 -49 27 0 9 14 21 30 27 36 14 40 32 5 23 -14 -4 -25 -2
-25 3 0 21 68 29 74 9z m66 -38 c0 -43 -3 -50 -20 -50 -17 0 -20 7 -20 43 0
46 5 57 27 57 9 0 13 -15 13 -50z m158 -2 c3 -40 0 -47 -15 -47 -10 0 -26 -1
-37 -3 -26 -4 -44 26 -27 46 8 9 22 16 32 16 11 0 19 5 19 11 0 7 -10 9 -25 5
-14 -4 -25 -3 -25 2 0 16 14 23 45 20 28 -3 30 -6 33 -50z m282 33 c17 -32 12
-41 -25 -41 -19 0 -35 -5 -35 -11 0 -7 11 -9 30 -5 22 4 30 2 30 -9 0 -8 -4
-15 -9 -15 -5 0 -16 -3 -24 -6 -35 -13 -64 65 -35 94 18 18 56 14 68 -7z m296
11 c6 -4 13 -26 16 -50 3 -34 1 -42 -12 -40 -8 1 -21 -1 -27 -5 -17 -11 -53
10 -53 29 0 9 14 21 30 27 40 15 38 30 -2 21 -29 -6 -31 -5 -19 10 14 17 48
21 67 8z m134 -12 c5 -10 10 -27 10 -38 0 -25 -33 -54 -53 -46 -11 4 -16 -1
-19 -17 -2 -12 -9 -24 -15 -27 -10 -3 -13 16 -13 70 l0 74 40 1 c30 2 42 -3
50 -17z m60 -30 c0 -38 -4 -50 -15 -50 -11 0 -15 12 -15 50 0 38 4 50 15 50
11 0 15 -12 15 -50z m156 42 c6 -4 13 -26 16 -50 3 -34 1 -42 -12 -40 -8 1
-21 -1 -27 -5 -17 -11 -53 10 -53 29 0 9 14 21 30 27 40 15 38 30 -2 22 -31
-6 -32 -5 -14 10 21 16 44 19 62 7z"/>
<path d="M5982 4498 c-28 -28 -10 -78 29 -78 28 0 29 2 29 45 0 40 -2 45 -23
45 -13 0 -28 -5 -35 -12z"/>
<path d="M6390 4489 c0 -16 5 -20 27 -17 17 2 29 10 31 21 3 13 -3 17 -27 17
-25 0 -31 -4 -31 -21z"/>
<path d="M6550 4470 c-9 -17 -8 -20 9 -20 14 0 18 5 14 20 -3 11 -7 20 -9 20
-2 0 -8 -9 -14 -20z"/>
<path d="M7020 4490 c0 -23 31 -27 49 -7 14 17 4 27 -26 27 -16 0 -23 -6 -23
-20z"/>
<path d="M7181 4493 c-1 -6 -4 -18 -7 -27 -4 -11 -1 -16 10 -16 18 0 19 6 6
35 -5 11 -9 15 -9 8z"/>
<path d="M7464 4497 c-3 -9 -4 -28 -2 -44 2 -22 9 -29 30 -31 23 -3 29 2 34
24 4 15 2 34 -3 43 -13 21 -52 26 -59 8z"/>
<path d="M5750 4225 c0 -8 5 -15 10 -15 6 0 10 7 10 15 0 8 -4 15 -10 15 -5 0
-10 -7 -10 -15z"/>
<path d="M6310 4210 c0 -25 4 -31 18 -28 11 2 17 12 17 28 0 16 -6 26 -17 28
-14 3 -18 -3 -18 -28z"/>
<path d="M7742 4258 c5 -15 48 -18 48 -3 0 6 -11 11 -26 13 -18 3 -25 0 -22
-10z"/>
<path d="M5970 4190 c0 -5 7 -10 15 -10 8 0 15 5 15 10 0 6 -7 10 -15 10 -8 0
-15 -4 -15 -10z"/>
<path d="M6185 4190 c-3 -5 3 -10 14 -10 12 0 21 5 21 10 0 6 -6 10 -14 10 -8
0 -18 -4 -21 -10z"/>
<path d="M6475 4230 c-3 -5 3 -10 14 -10 12 0 21 5 21 10 0 6 -6 10 -14 10 -8
0 -18 -4 -21 -10z"/>
<path d="M6785 4190 c-3 -5 1 -10 9 -10 9 0 16 5 16 10 0 6 -4 10 -9 10 -6 0
-13 -4 -16 -10z"/>
<path d="M6898 4223 c-7 -27 2 -43 23 -43 14 0 19 7 19 30 0 23 -5 30 -19 30
-10 0 -21 -8 -23 -17z"/>
<path d="M7135 4190 c-3 -5 1 -10 9 -10 9 0 16 5 16 10 0 6 -4 10 -9 10 -6 0
-13 -4 -16 -10z"/>
<path d="M2220 4374 c-17 -36 -30 -68 -30 -70 0 -10 29 -2 40 11 7 8 23 15 37
15 13 0 26 -7 29 -15 7 -16 34 -21 34 -6 0 25 -54 131 -67 131 -7 0 -27 -30
-43 -66z m49 -13 c-15 -5 -22 6 -14 19 6 9 10 9 16 -1 5 -8 4 -15 -2 -18z"/>
<path d="M2691 4431 c-14 -9 -18 -102 -5 -122 7 -12 44 -11 44 1 0 6 -4 10
-10 10 -5 0 -10 16 -10 35 0 21 5 35 13 35 8 0 9 2 1 8 -7 4 -13 15 -15 24 -3
12 -8 15 -18 9z"/>
<path d="M3630 4370 l0 -70 50 0 c28 0 50 5 50 10 0 6 -16 10 -35 10 l-35 0 0
60 c0 47 -3 60 -15 60 -12 0 -15 -14 -15 -70z"/>
<path d="M3750 4425 c0 -8 7 -15 15 -15 8 0 15 7 15 15 0 8 -7 15 -15 15 -8 0
-15 -7 -15 -15z"/>
<path d="M3920 4371 c0 -66 1 -70 23 -69 61 1 68 6 65 51 -3 40 -4 42 -35 42
-28 0 -33 4 -33 22 0 13 -4 23 -10 23 -6 0 -10 -30 -10 -69z m65 -16 c0 -23
-5 -31 -22 -33 -19 -3 -23 1 -23 26 0 33 8 44 30 40 9 -2 15 -14 15 -33z"/>
<path d="M4040 4424 c0 -9 5 -14 12 -12 18 6 21 28 4 28 -9 0 -16 -7 -16 -16z"/>
<path d="M4090 4370 c0 -56 3 -70 15 -70 12 0 15 14 15 70 0 56 -3 70 -15 70
-12 0 -15 -14 -15 -70z"/>
<path d="M4150 4425 c0 -8 5 -15 10 -15 6 0 10 7 10 15 0 8 -4 15 -10 15 -5 0
-10 -7 -10 -15z"/>
<path d="M4215 4425 c-5 -11 -13 -23 -19 -27 -7 -5 -7 -8 2 -8 7 0 12 -15 12
-40 0 -39 21 -64 38 -45 4 4 1 10 -5 12 -7 3 -13 20 -13 39 0 20 5 34 13 34 8
0 9 2 1 8 -7 4 -14 16 -16 27 l-5 20 -8 -20z"/>
<path d="M4270 4425 c0 -8 5 -15 10 -15 6 0 10 7 10 15 0 8 -4 15 -10 15 -5 0
-10 -7 -10 -15z"/>
<path d="M2350 4390 c-20 -13 -2 -44 29 -48 11 -2 21 -8 21 -13 0 -7 -13 -8
-32 -3 -29 6 -31 5 -19 -10 17 -20 51 -21 77 -1 19 15 19 15 -5 35 -13 11 -29
20 -37 20 -8 0 -14 5 -14 11 0 7 12 8 33 4 24 -5 28 -4 17 4 -19 13 -50 14
-70 1z"/>
<path d="M2464 4385 c-9 -23 3 -45 25 -45 11 0 23 -5 27 -11 5 -9 -4 -10 -31
-5 -35 7 -38 6 -25 -9 8 -10 25 -15 44 -13 25 2 32 8 34 30 3 22 -2 27 -27 33
-17 4 -31 11 -31 17 0 6 13 7 31 3 22 -5 29 -4 25 4 -11 16 -66 13 -72 -4z"/>
<path d="M2578 4389 c-26 -14 -23 -65 3 -79 23 -13 69 -5 69 11 0 7 -11 8 -30
4 -19 -4 -30 -3 -30 4 0 6 16 11 35 11 28 0 35 4 35 20 0 33 -47 50 -82 29z
m46 -14 c4 -10 -1 -15 -14 -15 -20 0 -26 11 -13 23 10 11 20 8 27 -8z"/>
<path d="M2744 4385 c-8 -20 2 -33 39 -50 l32 -15 -37 4 c-29 4 -36 1 -31 -10
7 -19 69 -19 77 1 9 25 -5 46 -35 52 -16 3 -29 10 -29 16 0 5 13 7 30 4 17 -4
30 -2 30 3 0 16 -70 12 -76 -5z"/>
<path d="M3750 4350 c0 -38 4 -50 15 -50 11 0 15 12 15 50 0 38 -4 50 -15 50
-11 0 -15 -12 -15 -50z"/>
<path d="M3805 4391 c-3 -5 0 -13 7 -17 6 -4 14 -2 16 4 2 7 10 12 19 12 23 0
9 -24 -18 -30 -17 -4 -24 -13 -24 -30 0 -23 4 -25 43 -26 42 -1 42 -1 42 36 0
20 -5 41 -12 48 -14 14 -64 16 -73 3z m55 -56 c0 -9 -9 -15 -22 -15 -22 1 -23
1 -4 15 25 19 26 19 26 0z"/>
<path d="M4040 4350 c0 -38 4 -50 15 -50 11 0 15 12 15 50 0 38 -4 50 -15 50
-11 0 -15 -12 -15 -50z"/>
<path d="M4150 4350 c0 -27 5 -50 10 -50 6 0 10 23 10 50 0 28 -4 50 -10 50
-5 0 -10 -22 -10 -50z"/>
<path d="M4270 4350 c0 -27 5 -50 10 -50 6 0 10 23 10 50 0 28 -4 50 -10 50
-5 0 -10 -22 -10 -50z"/>
<path d="M4326 4384 c-21 -21 -20 -47 2 -67 24 -22 56 -22 73 -1 12 15 10 16
-19 10 -21 -5 -32 -4 -32 3 0 6 14 11 30 11 25 0 30 4 30 24 0 37 -55 50 -84
20z m54 -15 c0 -5 -7 -9 -15 -9 -15 0 -20 12 -9 23 8 8 24 -1 24 -14z"/>
<path d="M4437 4393 c-18 -17 -4 -41 31 -57 l37 -16 -38 5 c-27 3 -37 0 -34
-8 6 -19 62 -20 77 -2 11 13 10 19 -5 35 -10 11 -26 20 -37 20 -10 0 -18 5
-18 11 0 7 11 9 30 5 19 -3 29 -2 25 4 -7 11 -58 14 -68 3z"/>
<path d="M1653 4213 c-8 -3 -13 -24 -13 -53 0 -65 -7 -80 -39 -81 -20 -1 -22
-2 -6 -6 36 -9 45 -24 45 -78 0 -54 9 -66 48 -64 10 1 6 4 -8 8 -22 6 -25 13
-28 61 -2 30 -8 60 -13 66 -7 8 -6 14 1 19 5 3 10 30 10 60 0 49 2 54 28 63
20 8 22 10 7 10 -11 0 -26 -2 -32 -5z"/>
<path d="M1970 4200 c-13 -8 -12 -10 3 -10 9 0 17 5 17 10 0 12 -1 12 -20 0z"/>
<path d="M2020 4200 c0 -6 7 -10 15 -10 8 0 15 2 15 4 0 2 -7 6 -15 10 -8 3
-15 1 -15 -4z"/>
<path d="M2210 4199 c0 -5 9 -9 20 -9 11 0 20 2 20 4 0 2 -9 6 -20 9 -11 3
-20 1 -20 -4z"/>
<path d="M2485 4200 c-19 -8 -19 -9 3 -9 12 -1 22 4 22 9 0 6 -1 10 -2 9 -2 0
-12 -4 -23 -9z"/>
<path d="M2620 4200 c-13 -8 -12 -10 3 -10 9 0 17 5 17 10 0 12 -1 12 -20 0z"/>
<path d="M2670 4200 c0 -6 7 -10 15 -10 8 0 15 2 15 4 0 2 -7 6 -15 10 -8 3
-15 1 -15 -4z"/>
<path d="M2730 4200 c0 -6 7 -10 15 -10 8 0 15 2 15 4 0 2 -7 6 -15 10 -8 3
-15 1 -15 -4z"/>
<path d="M2860 4200 c0 -6 7 -10 15 -10 8 0 15 2 15 4 0 2 -7 6 -15 10 -8 3
-15 1 -15 -4z"/>
<path d="M3135 4200 c-19 -8 -19 -9 3 -9 12 -1 22 4 22 9 0 6 -1 10 -2 9 -2 0
-12 -4 -23 -9z"/>
<path d="M3180 4199 c0 -5 9 -9 20 -9 11 0 20 2 20 4 0 2 -9 6 -20 9 -11 3
-20 1 -20 -4z"/>
<path d="M2088 4193 c6 -2 18 -2 25 0 6 3 1 5 -13 5 -14 0 -19 -2 -12 -5z"/>
<path d="M2158 4193 c6 -2 18 -2 25 0 6 3 1 5 -13 5 -14 0 -19 -2 -12 -5z"/>
<path d="M2288 4193 c6 -2 18 -2 25 0 6 3 1 5 -13 5 -14 0 -19 -2 -12 -5z"/>
<path d="M2348 4193 c6 -2 18 -2 25 0 6 3 1 5 -13 5 -14 0 -19 -2 -12 -5z"/>
<path d="M2408 4193 c6 -2 18 -2 25 0 6 3 1 5 -13 5 -14 0 -19 -2 -12 -5z"/>
<path d="M2548 4193 c7 -3 16 -2 19 1 4 3 -2 6 -13 5 -11 0 -14 -3 -6 -6z"/>
<path d="M2808 4193 c7 -3 16 -2 19 1 4 3 -2 6 -13 5 -11 0 -14 -3 -6 -6z"/>
<path d="M2938 4193 c7 -3 16 -2 19 1 4 3 -2 6 -13 5 -11 0 -14 -3 -6 -6z"/>
<path d="M2998 4193 c6 -2 18 -2 25 0 6 3 1 5 -13 5 -14 0 -19 -2 -12 -5z"/>
<path d="M3058 4193 c6 -2 18 -2 25 0 6 3 1 5 -13 5 -14 0 -19 -2 -12 -5z"/>
<path d="M3232 4160 c0 -14 2 -19 5 -12 2 6 2 18 0 25 -3 6 -5 1 -5 -13z"/>
<path d="M1902 4145 c0 -16 2 -22 5 -12 2 9 2 23 0 30 -3 6 -5 -1 -5 -18z"/>
<path d="M220 4080 c0 -27 5 -50 10 -50 6 0 10 23 10 50 0 28 -4 50 -10 50 -5
0 -10 -22 -10 -50z"/>
<path d="M443 4080 c0 -30 2 -43 4 -27 2 15 2 39 0 55 -2 15 -4 2 -4 -28z"/>
<path d="M470 4080 c0 -38 4 -50 15 -50 11 0 15 12 15 50 0 38 -4 50 -15 50
-11 0 -15 -12 -15 -50z"/>
<path d="M600 4080 c0 -38 4 -50 15 -50 11 0 15 12 15 50 0 38 -4 50 -15 50
-11 0 -15 -12 -15 -50z"/>
<path d="M651 4084 l-1 -51 33 1 c28 1 32 4 35 33 2 24 -1 33 -17 38 -12 3
-25 4 -30 1 -5 -4 -12 2 -14 11 -3 10 -5 -5 -6 -33z m47 -22 c2 -14 -2 -22
-12 -22 -19 0 -29 17 -22 36 8 22 30 12 34 -14z"/>
<path d="M730 4080 c0 -38 4 -50 15 -50 11 0 15 12 15 50 0 38 -4 50 -15 50
-11 0 -15 -12 -15 -50z"/>
<path d="M1154 4095 c-7 -38 0 -65 16 -65 5 0 10 22 10 50 0 57 -16 67 -26 15z"/>
<path d="M1203 4115 c-7 -7 -8 -25 -4 -46 6 -31 10 -34 43 -36 31 -2 36 1 32
15 -5 15 -4 15 6 0 17 -28 30 -21 30 16 0 26 -5 36 -20 41 -22 7 -40 -1 -40
-17 0 -5 7 -8 15 -4 8 3 15 1 15 -4 0 -6 -6 -10 -14 -10 -8 0 -16 -7 -20 -15
-11 -30 -29 -16 -23 18 6 41 -3 60 -20 42z"/>
<path d="M1330 4080 c0 -27 5 -50 10 -50 6 0 10 23 10 50 0 28 -4 50 -10 50
-5 0 -10 -22 -10 -50z"/>
<path d="M260 4069 c0 -22 5 -39 10 -39 6 0 10 11 10 24 0 14 5 28 10 31 6 4
10 -7 10 -24 0 -21 5 -31 15 -31 10 0 15 10 15 28 0 38 -11 50 -42 50 -26 0
-28 -4 -28 -39z"/>
<path d="M360 4096 c-28 -35 13 -88 44 -56 8 9 6 11 -11 5 -14 -4 -23 -2 -23
4 0 6 11 11 25 11 29 0 32 12 9 34 -19 20 -28 20 -44 2z m30 -16 c0 -5 -4 -10
-10 -10 -5 0 -10 5 -10 10 0 6 5 10 10 10 6 0 10 -4 10 -10z"/>
<path d="M514 4096 c-3 -8 -4 -25 -2 -38 2 -18 9 -23 31 -23 15 1 26 -4 24
-10 -2 -5 -16 -9 -31 -7 -30 3 -36 -14 -7 -23 37 -12 51 4 51 59 0 50 -1 52
-30 54 -19 1 -33 -3 -36 -12z m49 -18 c6 -19 -3 -38 -19 -38 -8 0 -14 10 -14
25 0 26 25 35 33 13z"/>
<path d="M778 4085 c-8 -19 -8 -28 2 -40 13 -16 50 -21 50 -6 0 5 -9 7 -20 4
-11 -3 -20 0 -20 6 0 6 13 11 30 11 24 0 28 3 23 18 -14 38 -49 42 -65 7z m42
-5 c0 -5 -7 -10 -15 -10 -8 0 -15 5 -15 10 0 6 7 10 15 10 8 0 15 -4 15 -10z"/>
<path d="M912 4098 c-7 -7 -12 -22 -12 -35 0 -26 44 -43 63 -24 9 9 6 11 -13
9 -19 -2 -25 2 -25 17 0 16 6 19 25 17 21 -4 22 -2 11 12 -16 19 -33 20 -49 4z"/>
<path d="M997 4103 c-12 -12 -7 -22 8 -17 8 4 15 2 15 -4 0 -5 -9 -12 -21 -15
-31 -8 -17 -32 19 -34 29 -1 32 2 32 26 0 39 -32 65 -53 44z m23 -53 c0 -5 -4
-10 -10 -10 -5 0 -10 5 -10 10 0 6 5 10 10 10 6 0 10 -4 10 -10z"/>
<path d="M1070 4053 c0 -29 5 -53 10 -53 6 0 10 6 10 14 0 8 10 16 23 18 18 2
22 9 22 38 0 33 -2 35 -32 35 l-33 1 0 -53z m50 12 c0 -16 -6 -25 -15 -25 -9
0 -15 9 -15 25 0 16 6 25 15 25 9 0 15 -9 15 -25z"/>
<path d="M3231 4094 c0 -11 3 -14 6 -6 3 7 2 16 -1 19 -3 4 -6 -2 -5 -13z"/>
<path d="M1902 4080 c0 -14 2 -19 5 -12 2 6 2 18 0 25 -3 6 -5 1 -5 -13z"/>
<path d="M3231 4034 c0 -11 3 -14 6 -6 3 7 2 16 -1 19 -3 4 -6 -2 -5 -13z"/>
<path d="M1902 4015 c0 -16 2 -22 5 -12 2 9 2 23 0 30 -3 6 -5 -1 -5 -18z"/>
<path d="M7082 3453 l-2 -573 708 2 707 3 -702 2 -703 3 -3 568 -2 567 -3
-572z"/>
<path d="M3231 3964 c0 -11 3 -14 6 -6 3 7 2 16 -1 19 -3 4 -6 -2 -5 -13z"/>
<path d="M1900 3950 c0 -11 4 -20 9 -20 5 0 7 9 4 20 -3 11 -7 20 -9 20 -2 0
-4 -9 -4 -20z"/>
<path d="M1958 3933 c6 -2 18 -2 25 0 6 3 1 5 -13 5 -14 0 -19 -2 -12 -5z"/>
<path d="M2028 3933 c7 -3 16 -2 19 1 4 3 -2 6 -13 5 -11 0 -14 -3 -6 -6z"/>
<path d="M2088 3933 c6 -2 18 -2 25 0 6 3 1 5 -13 5 -14 0 -19 -2 -12 -5z"/>
<path d="M2158 3933 c6 -2 18 -2 25 0 6 3 1 5 -13 5 -14 0 -19 -2 -12 -5z"/>
<path d="M2218 3933 c6 -2 18 -2 25 0 6 3 1 5 -13 5 -14 0 -19 -2 -12 -5z"/>
<path d="M2278 3933 c6 -2 18 -2 25 0 6 3 1 5 -13 5 -14 0 -19 -2 -12 -5z"/>
<path d="M2348 3933 c6 -2 18 -2 25 0 6 3 1 5 -13 5 -14 0 -19 -2 -12 -5z"/>
<path d="M2408 3933 c6 -2 18 -2 25 0 6 3 1 5 -13 5 -14 0 -19 -2 -12 -5z"/>
<path d="M2478 3933 c6 -2 18 -2 25 0 6 3 1 5 -13 5 -14 0 -19 -2 -12 -5z"/>
<path d="M2548 3933 c7 -3 16 -2 19 1 4 3 -2 6 -13 5 -11 0 -14 -3 -6 -6z"/>
<path d="M2608 3933 c7 -3 16 -2 19 1 4 3 -2 6 -13 5 -11 0 -14 -3 -6 -6z"/>
<path d="M2678 3933 c7 -3 16 -2 19 1 4 3 -2 6 -13 5 -11 0 -14 -3 -6 -6z"/>
<path d="M2738 3933 c7 -3 16 -2 19 1 4 3 -2 6 -13 5 -11 0 -14 -3 -6 -6z"/>
<path d="M2798 3933 c6 -2 18 -2 25 0 6 3 1 5 -13 5 -14 0 -19 -2 -12 -5z"/>
<path d="M2868 3933 c7 -3 16 -2 19 1 4 3 -2 6 -13 5 -11 0 -14 -3 -6 -6z"/>
<path d="M2928 3933 c6 -2 18 -2 25 0 6 3 1 5 -13 5 -14 0 -19 -2 -12 -5z"/>
<path d="M2998 3933 c6 -2 18 -2 25 0 6 3 1 5 -13 5 -14 0 -19 -2 -12 -5z"/>
<path d="M3058 3933 c6 -2 18 -2 25 0 6 3 1 5 -13 5 -14 0 -19 -2 -12 -5z"/>
<path d="M3128 3933 c6 -2 18 -2 25 0 6 3 1 5 -13 5 -14 0 -19 -2 -12 -5z"/>
<path d="M3188 3933 c6 -2 18 -2 25 0 6 3 1 5 -13 5 -14 0 -19 -2 -12 -5z"/>
<path d="M7170 3895 c0 -51 19 -63 21 -12 l1 32 10 -32 c6 -18 15 -33 19 -33
12 0 11 37 -1 45 -5 3 -10 15 -10 26 0 12 -7 19 -20 19 -17 0 -20 -7 -20 -45z"/>
<path d="M7234 3909 c3 -17 6 -38 6 -45 0 -8 5 -14 10 -14 6 0 10 20 10 45 0
35 -4 45 -16 45 -13 0 -15 -7 -10 -31z"/>
<path d="M7390 3895 c0 -25 5 -45 10 -45 6 0 10 7 10 15 0 19 10 19 24 0 9
-12 11 -9 11 19 0 22 -3 31 -9 26 -16 -16 -26 -12 -26 10 0 11 -4 20 -10 20
-5 0 -10 -20 -10 -45z"/>
<path d="M7532 3923 c-12 -25 0 -67 21 -71 9 -2 17 1 17 7 0 6 -4 11 -10 11
-14 0 -12 28 2 32 9 3 8 9 -4 22 -16 15 -18 15 -26 -1z"/>
<path d="M7600 3895 c0 -25 5 -45 10 -45 6 0 10 9 10 20 0 11 7 20 15 20 8 0
15 -6 15 -14 0 -17 18 -31 27 -22 3 3 0 13 -7 22 -11 13 -11 17 0 24 24 15 3
40 -35 40 -35 0 -35 0 -35 -45z m55 25 c3 -6 -1 -13 -10 -16 -19 -8 -30 0 -20
15 8 14 22 14 30 1z"/>
<path d="M7790 3908 c0 -17 -3 -28 -7 -24 -5 4 -8 13 -8 19 0 7 -16 12 -37 13
-36 1 -38 0 -38 -31 0 -29 3 -32 32 -33 18 0 38 4 45 10 9 7 13 7 13 -1 0 -6
5 -11 10 -11 6 0 10 7 10 15 0 8 4 15 9 15 5 0 11 -7 15 -15 3 -8 10 -15 16
-15 7 0 8 6 0 19 -5 11 -7 28 -3 38 5 15 3 16 -8 6 -19 -18 -29 -16 -29 7 0
11 -4 20 -10 20 -5 0 -10 -14 -10 -32z m-29 -28 c6 0 7 -5 4 -10 -5 -8 -11 -8
-19 -1 -7 6 -16 8 -19 4 -4 -3 -7 -1 -7 6 0 8 6 11 16 7 9 -3 20 -6 25 -6z"/>
<path d="M7286 3911 c-3 -5 0 -12 6 -14 10 -4 10 -6 1 -6 -7 -1 -13 -10 -13
-21 0 -15 7 -20 26 -20 23 0 25 3 22 32 -3 32 -29 50 -42 29z"/>
<path d="M7350 3885 c0 -19 5 -35 10 -35 6 0 10 9 10 19 0 11 3 26 6 35 4 11
1 16 -10 16 -12 0 -16 -10 -16 -35z"/>
<path d="M7470 3905 c-17 -21 -8 -50 18 -53 26 -4 30 14 5 21 -13 3 -11 5 6 6
17 1 21 5 17 17 -3 9 -6 18 -6 20 0 10 -29 3 -40 -11z"/>
<path d="M1672 3901 c-8 -5 -15 -33 -17 -72 l-4 -64 9 59 c5 32 15 65 21 72
13 16 10 18 -9 5z"/>
<path d="M1902 3263 l3 -648 2 643 3 642 655 0 655 0 0 -85 c0 -50 4 -85 10
-85 6 0 10 37 10 90 l0 90 -670 0 -670 0 2 -647z"/>
<path d="M2330 3880 c0 -5 7 -10 15 -10 12 0 15 -13 15 -55 0 -30 5 -55 10
-55 6 0 10 25 10 55 0 48 2 55 20 55 11 0 20 5 20 10 0 6 -20 10 -45 10 -25 0
-45 -4 -45 -10z"/>
<path d="M2430 3880 c0 -5 5 -10 11 -10 5 0 7 5 4 10 -3 6 -8 10 -11 10 -2 0
-4 -4 -4 -10z"/>
<path d="M2676 3874 c-4 -9 -4 -19 -1 -22 3 -3 5 0 5 6 0 7 9 12 20 12 24 0
27 -28 3 -37 -14 -5 -13 -8 6 -15 14 -5 21 -15 19 -25 -4 -22 -37 -30 -50 -11
-8 10 -9 10 -5 -2 5 -19 44 -25 62 -10 16 13 11 84 -8 108 -14 17 -44 15 -51
-4z"/>
<path d="M3620 3800 c0 -47 3 -60 15 -60 9 0 15 9 15 25 0 20 5 25 25 25 14 0
25 5 25 10 0 6 -11 10 -25 10 -14 0 -25 5 -25 10 0 6 11 10 25 10 16 0 25 6
25 15 0 11 -11 15 -40 15 l-40 0 0 -60z"/>
<path d="M4043 3853 c-7 -2 -13 -15 -13 -28 0 -17 8 -26 30 -34 43 -14 39 -35
-5 -27 -41 8 -44 2 -11 -19 18 -12 30 -13 50 -5 38 14 32 50 -12 71 -23 12
-28 18 -18 22 9 4 18 2 21 -3 3 -5 13 -6 22 -3 14 6 14 8 -3 20 -18 13 -39 15
-61 6z"/>
<path d="M4427 3853 c-11 -10 -8 -113 3 -113 6 0 10 27 10 60 0 61 -1 65 -13
53z"/>
<path d="M2430 3806 c0 -25 5 -46 10 -46 6 0 10 18 10 39 0 22 -4 43 -10 46
-6 4 -10 -12 -10 -39z"/>
<path d="M2470 3831 c-6 -11 -8 -32 -4 -46 5 -21 12 -25 40 -25 24 0 34 5 34
15 0 13 -3 13 -20 3 -16 -11 -23 -10 -37 5 -16 16 -15 17 21 17 33 0 37 3 34
23 -4 31 -52 36 -68 8z m53 -8 c-7 -2 -21 -2 -30 0 -10 3 -4 5 12 5 17 0 24
-2 18 -5z"/>
<path d="M2560 3804 c0 -24 5 -44 10 -44 6 0 10 16 10 35 0 24 5 35 15 35 8 0
15 4 15 9 0 5 -11 9 -25 9 -23 0 -25 -4 -25 -44z"/>
<path d="M3731 3780 l0 -45 13 35 c6 19 17 34 24 33 7 -2 12 4 12 12 0 10 -9
14 -25 13 -23 -2 -25 -6 -24 -48z"/>
<path d="M3796 3814 c-15 -39 0 -84 29 -84 6 0 20 7 31 16 18 15 18 15 -8 11
-15 -2 -33 0 -40 4 -8 6 1 9 25 9 29 0 37 4 37 18 0 38 -61 60 -74 26z m44
-14 c0 -5 -7 -10 -15 -10 -8 0 -15 5 -15 10 0 6 7 10 15 10 8 0 15 -4 15 -10z"/>
<path d="M3892 3818 c-22 -22 -14 -67 13 -80 22 -10 29 -9 43 7 16 17 16 17
-4 13 -12 -3 -28 -2 -35 3 -10 6 -4 9 19 9 24 0 32 4 32 18 0 22 -19 42 -40
42 -9 0 -21 -5 -28 -12z m48 -18 c0 -5 -7 -10 -15 -10 -8 0 -15 5 -15 10 0 6
7 10 15 10 8 0 15 -4 15 -10z"/>
<path d="M4150 3788 c0 -53 4 -58 43 -51 25 5 27 9 27 49 0 54 -18 59 -22 7
-4 -45 -22 -50 -26 -8 -6 51 -22 53 -22 3z"/>
<path d="M4250 3784 c0 -32 4 -44 15 -44 10 0 15 10 15 30 0 17 5 30 10 30 6
0 10 6 10 14 0 8 -10 14 -25 14 -23 0 -25 -4 -25 -44z"/>
<path d="M4315 3822 c-3 -3 -5 -32 -5 -64 0 -45 3 -58 15 -58 10 0 15 10 15
27 0 20 3 24 12 15 7 -7 17 -8 30 -1 21 11 25 61 6 77 -14 10 -63 13 -73 4z
m59 -28 c10 -26 7 -34 -14 -34 -13 0 -20 7 -20 18 0 33 23 44 34 16z"/>
<path d="M4470 3791 c0 -42 17 -65 39 -51 8 4 20 6 28 3 10 -4 13 7 13 41 0
25 -4 46 -10 46 -5 0 -10 -15 -10 -34 0 -21 -6 -36 -15 -40 -12 -4 -15 3 -15
34 0 29 -4 40 -15 40 -11 0 -15 -11 -15 -39z"/>
<path d="M4577 3823 c-16 -15 -6 -44 18 -53 14 -5 25 -12 25 -15 0 -3 -11 -3
-25 1 -14 3 -25 2 -25 -4 0 -5 12 -13 27 -17 20 -5 31 -2 39 10 16 22 7 45
-16 45 -11 0 -22 5 -26 11 -5 8 1 10 20 7 18 -4 26 -1 26 8 0 14 -51 20 -63 7z"/>
<path d="M1650 3528 c-3 -161 -9 -241 -17 -249 -9 -9 -8 -21 3 -51 11 -31 14
-102 14 -300 0 -208 3 -266 15 -295 8 -20 18 -34 21 -30 3 3 -2 19 -10 36 -13
25 -16 74 -17 293 0 179 -4 274 -12 298 -10 28 -10 40 0 61 10 20 13 83 11
250 l-3 224 -5 -237z"/>
<path d="M7182 3708 c-7 -7 -12 -21 -12 -33 0 -41 45 -60 70 -31 10 13 7 15
-17 13 -22 -2 -28 2 -28 18 0 16 6 20 28 18 24 -2 27 0 17 13 -15 17 -42 18
-58 2z"/>
<path d="M7429 3703 c-1 -10 -1 -25 0 -35 1 -9 -3 -19 -10 -23 -13 -9 -31 14
-24 32 5 14 -37 13 -47 -2 -5 -6 -11 -5 -18 5 -9 13 -11 13 -19 1 -13 -20 5
-51 29 -51 10 0 22 5 26 11 4 8 0 9 -15 4 -12 -4 -21 -2 -21 4 0 17 47 13 54
-4 3 -9 16 -14 31 -13 23 2 25 7 25 45 0 41 -9 61 -11 26z"/>
<path d="M7460 3709 c0 -5 5 -7 10 -4 6 3 10 8 10 11 0 2 -4 4 -10 4 -5 0 -10
-5 -10 -11z"/>
<path d="M7571 3673 c1 -27 4 -38 6 -25 5 27 19 28 35 2 7 -11 23 -20 35 -20
19 0 23 6 23 30 0 17 -4 30 -10 30 -5 0 -10 -12 -10 -27 -1 -27 -1 -27 -15 -9
-11 15 -12 22 -4 27 22 13 1 39 -31 39 -29 0 -30 -1 -29 -47z m42 20 c-7 -2
-19 -2 -25 0 -7 3 -2 5 12 5 14 0 19 -2 13 -5z"/>
<path d="M7650 3710 c0 -5 5 -10 10 -10 6 0 10 5 10 10 0 6 -4 10 -10 10 -5 0
-10 -4 -10 -10z"/>
<path d="M7760 3675 c0 -52 11 -58 27 -15 6 17 7 28 2 24 -5 -3 -9 4 -9 15 0
12 -4 21 -10 21 -5 0 -10 -20 -10 -45z"/>
<path d="M3220 3515 c0 -123 4 -195 10 -195 6 0 10 72 10 195 0 123 -4 195
-10 195 -6 0 -10 -72 -10 -195z"/>
<path d="M7500 3670 c0 -22 3 -40 8 -40 4 0 6 18 4 40 -2 22 -6 40 -8 40 -2 0
-4 -18 -4 -40z"/>
<path d="M7270 3660 c0 -16 5 -30 10 -30 6 0 10 14 10 30 0 17 -4 30 -10 30
-5 0 -10 -13 -10 -30z"/>
<path d="M7460 3660 c0 -16 5 -30 10 -30 6 0 10 14 10 30 0 17 -4 30 -10 30
-5 0 -10 -13 -10 -30z"/>
<path d="M7690 3673 c0 -7 7 -13 15 -13 8 0 15 -4 15 -9 0 -5 -10 -7 -22 -3
-14 3 -19 2 -14 -6 11 -17 46 -15 53 4 3 9 0 20 -7 24 -10 6 -9 9 1 13 8 2 2
4 -13 3 -16 0 -28 -7 -28 -13z"/>
<path d="M4938 3630 l32 -31 0 -202 c0 -111 4 -207 8 -214 4 -6 6 86 4 205 -4
231 -5 238 -57 264 -12 6 -7 -3 13 -22z"/>
<path d="M7790 3646 c0 -9 5 -16 10 -16 6 0 10 4 10 9 0 6 -4 13 -10 16 -5 3
-10 -1 -10 -9z"/>
<path d="M3430 1935 l0 -1705 675 0 675 0 0 1225 c0 973 3 1225 13 1225 34 0
167 -24 167 -31 0 -4 -12 -17 -26 -28 -15 -12 -21 -21 -15 -21 7 0 22 11 35
25 21 22 28 24 97 20 l74 -4 -70 12 -70 12 0 212 c0 117 -3 205 -7 195 -4 -9
-7 -104 -7 -209 -1 -153 -4 -193 -14 -193 -14 0 -114 16 -154 25 l-23 5 0 470
c0 307 -3 470 -10 470 -6 0 -10 -120 -10 -340 l0 -340 -655 0 -655 0 0 340 c0
220 -4 340 -10 340 -7 0 -10 -575 -10 -1705z m1330 895 l0 -120 -47 0 c-43 0
-104 8 -210 25 -20 4 -33 12 -33 20 0 8 -4 15 -10 15 -14 0 -60 -22 -60 -29 0
-13 59 -41 64 -32 7 10 70 7 209 -11 l87 -11 0 -38 0 -39 -655 0 -655 0 0 170
0 170 655 0 655 0 0 -120z m0 -540 l0 -310 -655 0 -655 0 0 310 0 310 655 0
655 0 0 -310z m0 -975 l0 -655 -655 0 -655 0 0 655 0 655 655 0 655 0 0 -655z
m0 -870 l0 -205 -655 0 -655 0 0 205 0 205 655 0 655 0 0 -205z"/>
<path d="M4046 2799 c-48 -37 -25 -109 36 -109 14 0 33 9 43 20 16 17 16 20 2
20 -9 0 -19 -4 -22 -10 -12 -20 -43 -10 -49 16 -9 36 9 55 45 47 37 -7 39 14
3 27 -32 13 -27 13 -58 -11z"/>
<path d="M3880 2750 c0 -47 3 -60 15 -60 11 0 15 12 15 43 l1 42 14 -40 c8
-22 15 -41 15 -42 0 -2 4 -3 10 -3 5 0 14 15 19 33 l9 32 1 -32 c1 -22 6 -33
16 -33 12 0 15 13 15 61 0 56 -1 60 -22 57 -14 -2 -25 -15 -33 -38 l-12 -35
-7 38 c-6 31 -11 37 -31 37 -24 0 -25 -3 -25 -60z"/>
<path d="M4150 2750 c0 -47 3 -60 15 -60 9 0 15 9 15 25 0 14 4 25 10 25 5 0
17 -11 26 -25 9 -14 26 -25 37 -25 20 0 20 1 -3 24 -21 23 -21 26 -6 41 31 32
10 55 -51 55 l-43 0 0 -60z m70 25 c0 -8 -9 -15 -20 -15 -11 0 -20 7 -20 15 0
8 9 15 20 15 11 0 20 -7 20 -15z"/>
<path d="M3690 2311 c0 -34 4 -61 10 -61 6 0 10 11 10 25 0 33 24 32 56 -2 13
-14 27 -23 31 -20 3 4 -4 18 -16 31 -19 21 -20 24 -6 30 10 3 15 15 13 28 -3
20 -10 23 -50 26 l-48 3 0 -60z m78 32 c-2 -11 -14 -19 -31 -21 -22 -3 -27 1
-27 17 0 17 6 21 31 21 24 0 30 -4 27 -17z"/>
<path d="M3943 2310 c0 -36 2 -55 4 -42 6 28 18 28 37 0 9 -12 18 -19 21 -16
8 7 -5 38 -16 38 -14 0 -10 22 8 42 9 10 12 18 6 18 -5 0 -18 -10 -29 -21
l-19 -21 -6 33 c-5 24 -6 15 -6 -31z"/>
<path d="M4081 2313 c2 -54 2 -55 8 -18 l6 40 14 -43 c8 -23 19 -41 25 -39 15
5 20 38 6 35 -7 -2 -19 16 -27 40 -20 59 -33 53 -32 -15z"/>
<path d="M4156 2354 c-3 -9 -6 -23 -5 -32 0 -14 2 -13 9 3 6 15 9 8 9 -27 1
-27 6 -48 11 -48 6 0 10 27 10 60 0 45 -4 60 -14 60 -8 0 -17 -7 -20 -16z"/>
<path d="M3810 2301 c0 -28 5 -51 10 -51 6 0 10 20 10 44 0 25 -4 48 -10 51
-6 4 -10 -13 -10 -44z"/>
<path d="M3863 2338 c-18 -23 -14 -76 6 -83 46 -14 70 28 26 45 -14 5 -25 14
-25 20 0 13 17 13 25 0 4 -6 11 -7 17 -4 7 5 4 12 -7 21 -23 16 -30 16 -42 1z
m37 -58 c0 -5 -6 -10 -14 -10 -8 0 -18 5 -21 10 -3 6 3 10 14 10 12 0 21 -4
21 -10z"/>
<path d="M4233 2343 c-7 -2 -13 -12 -12 -21 0 -11 2 -12 6 -4 6 14 39 16 48 2
4 -6 -7 -13 -25 -16 -35 -7 -43 -16 -34 -38 4 -11 17 -15 40 -13 33 2 34 3 34
43 0 48 -19 63 -57 47z m34 -68 c-11 -7 -25 -11 -33 -8 -25 10 -15 23 19 23
30 -1 31 -2 14 -15z"/>
<path d="M4310 2298 c0 -27 5 -48 10 -48 6 0 10 16 10 35 0 22 6 38 15 41 24
9 17 22 -10 20 -23 -1 -25 -5 -25 -48z"/>
<path d="M4375 2333 c-31 -30 -3 -90 36 -80 11 3 19 1 19 -4 0 -17 -32 -23
-52 -10 -16 10 -19 10 -16 -1 6 -18 59 -23 69 -6 5 7 9 36 9 63 0 46 -2 50
-25 51 -14 1 -32 -5 -40 -13z m50 -33 c0 -16 -6 -26 -18 -28 -19 -4 -32 20
-23 44 9 25 41 13 41 -16z"/>
<path d="M4473 2300 c0 -30 2 -43 4 -27 2 15 2 39 0 55 -2 15 -4 2 -4 -28z"/>
<path d="M4500 2298 c0 -57 17 -65 22 -11 2 26 8 39 20 41 13 3 18 -6 21 -40
4 -40 4 -39 3 7 -1 50 -1 50 -33 50 -33 0 -33 -1 -33 -47z"/>
<path d="M3590 1285 l0 -65 33 0 c18 0 42 6 53 14 16 13 17 18 7 35 -7 11 -10
27 -7 36 10 24 -15 45 -52 45 l-34 0 0 -65z m70 30 c0 -9 -9 -15 -25 -15 -16
0 -25 6 -25 15 0 9 9 15 25 15 16 0 25 -6 25 -15z m8 -57 c3 -14 -3 -18 -27
-18 -25 0 -31 4 -31 21 0 16 5 20 27 17 17 -2 29 -10 31 -20z"/>
<path d="M3990 1285 l0 -65 45 0 c25 0 45 5 45 10 0 6 -16 10 -35 10 -28 0
-35 4 -35 20 0 16 7 20 35 20 19 0 35 5 35 10 0 6 -16 10 -35 10 -24 0 -35 5
-35 15 0 10 11 15 35 15 19 0 35 5 35 10 0 6 -20 10 -45 10 l-45 0 0 -65z"/>
<path d="M4235 1341 c-3 -5 -1 -12 5 -16 5 -3 10 1 10 9 0 18 -6 21 -15 7z"/>
<path d="M3893 1326 c-6 -10 -9 -26 -7 -35 11 -59 16 -71 29 -71 8 0 15 5 15
10 0 6 -4 10 -10 10 -5 0 -10 14 -10 30 0 17 5 30 13 30 8 0 9 3 1 8 -6 4 -13
14 -16 22 -4 12 -6 11 -15 -4z"/>
<path d="M4193 1323 c-11 -22 -2 -95 13 -100 6 -2 9 17 7 53 -3 64 -7 74 -20
47z"/>
<path d="M4513 1326 c-6 -10 -9 -26 -7 -35 11 -59 16 -71 29 -71 8 0 15 5 15
10 0 6 -4 10 -10 10 -5 0 -10 14 -10 30 0 17 5 30 13 30 8 0 9 3 1 8 -6 4 -13
14 -16 22 -4 12 -6 11 -15 -4z"/>
<path d="M3717 1304 c-11 -12 -8 -59 5 -72 16 -16 30 -15 54 3 18 14 17 14
-12 9 -19 -4 -34 -1 -38 5 -5 7 5 11 29 11 32 0 36 3 33 23 -2 16 -11 23 -33
25 -17 2 -34 0 -38 -4z m53 -14 c0 -5 -9 -10 -20 -10 -11 0 -20 5 -20 10 0 6
9 10 20 10 11 0 20 -4 20 -10z"/>
<path d="M3802 1288 c2 -13 11 -24 23 -26 36 -7 43 -25 8 -20 -38 5 -45 -9 -9
-18 31 -7 46 1 46 26 0 13 -9 22 -25 26 -14 3 -25 11 -25 16 0 6 11 7 25 4 14
-4 25 -2 25 4 0 5 -16 10 -36 10 -31 0 -35 -3 -32 -22z"/>
<path d="M4102 1288 c2 -15 11 -24 26 -26 12 -2 22 -8 22 -14 0 -6 -11 -8 -25
-6 -30 6 -34 -8 -5 -17 21 -7 50 9 50 26 0 5 -11 15 -25 21 -30 13 -34 33 -5
25 11 -3 20 -1 20 4 0 5 -14 9 -31 9 -26 0 -30 -3 -27 -22z"/>
<path d="M4230 1271 c0 -22 5 -43 10 -46 6 -4 10 12 10 39 0 25 -4 46 -10 46
-5 0 -10 -18 -10 -39z"/>
<path d="M4282 1263 l1 -48 4 43 c3 34 8 42 24 42 16 0 19 -7 19 -40 0 -22 5
-40 10 -40 6 0 10 18 10 40 0 29 4 40 15 40 11 0 15 -11 15 -40 0 -22 5 -40
11 -40 6 0 9 17 7 43 l-3 42 -57 3 -58 2 2 -47z"/>
<path d="M4426 1302 c-3 -4 8 -6 25 -4 38 6 37 -10 -2 -25 -45 -17 -36 -48 14
-49 l38 -1 -3 41 c-3 38 -5 41 -35 44 -17 2 -34 -1 -37 -6z m54 -52 c0 -5 -11
-10 -25 -10 -14 0 -25 5 -25 10 0 6 11 10 25 10 14 0 25 -4 25 -10z"/>
<path d="M4564 1284 c-4 -15 -2 -34 3 -43 13 -21 47 -26 61 -9 9 11 4 13 -23
10 -22 -3 -35 0 -35 7 0 6 16 11 36 11 31 0 35 3 32 23 -2 17 -11 23 -35 25
-28 3 -33 0 -39 -24z m56 6 c0 -5 -12 -10 -26 -10 -14 0 -23 4 -19 10 3 6 15
10 26 10 10 0 19 -4 19 -10z"/>
<path d="M2330 3530 c0 -5 7 -10 15 -10 12 0 15 -13 15 -55 0 -30 5 -55 10
-55 6 0 10 25 10 55 0 48 2 55 20 55 11 0 20 5 20 10 0 6 -20 10 -45 10 -25 0
-45 -4 -45 -10z"/>
<path d="M2430 3530 c0 -5 5 -10 11 -10 5 0 7 5 4 10 -3 6 -8 10 -11 10 -2 0
-4 -4 -4 -10z"/>
<path d="M2676 3524 c-4 -9 -4 -19 -1 -22 3 -3 5 0 5 6 0 15 37 16 46 1 3 -6
-5 -21 -19 -33 -14 -11 -30 -31 -36 -43 -11 -22 -10 -23 36 -22 l48 2 -38 6
-38 6 35 34 c41 40 42 44 20 65 -20 21 -50 20 -58 0z"/>
<path d="M6950 3488 l0 -38 -75 0 -75 0 0 -75 0 -75 75 0 75 0 0 -42 1 -43 34
79 35 78 -22 52 c-12 28 -28 62 -35 76 -13 25 -13 24 -13 -12z m49 -119 c1
-14 -2 -29 -6 -33 -5 -4 -13 -22 -20 -39 -9 -27 -12 -28 -12 -9 -1 21 -5 22
-76 22 l-75 0 0 60 0 60 75 0 c71 0 75 1 76 23 0 17 4 13 19 -18 10 -22 19
-52 19 -66z"/>
<path d="M2430 3456 c0 -25 5 -46 10 -46 6 0 10 18 10 39 0 22 -4 43 -10 46
-6 4 -10 -12 -10 -39z"/>
<path d="M2471 3481 c-16 -29 -15 -31 30 -31 36 0 40 2 37 23 -4 30 -52 37
-67 8z m59 -7 c0 -2 -12 -4 -27 -4 -21 0 -24 3 -14 9 13 8 41 5 41 -5z"/>
<path d="M2560 3455 c0 -25 5 -45 10 -45 6 0 10 16 10 35 0 24 5 35 15 35 8 0
15 5 15 10 0 6 -11 10 -25 10 -23 0 -25 -4 -25 -45z"/>
<path d="M7188 3489 c-10 -5 -18 -20 -18 -33 0 -52 67 -63 84 -14 8 23 6 31
-10 43 -23 17 -33 18 -56 4z m49 -29 c4 -23 -12 -41 -30 -34 -10 3 -17 17 -17
31 0 20 4 24 22 21 13 -2 24 -10 25 -18z"/>
<path d="M7583 3455 c0 -27 2 -38 4 -22 2 15 2 37 0 50 -2 12 -4 0 -4 -28z"/>
<path d="M7830 3455 c0 -25 5 -45 10 -45 6 0 10 20 10 45 0 25 -4 45 -10 45
-5 0 -10 -20 -10 -45z"/>
<path d="M7890 3456 c0 -25 5 -46 10 -46 6 0 10 9 10 20 0 11 4 20 9 20 5 0
13 -9 16 -20 3 -11 13 -20 21 -20 10 0 12 5 7 12 -4 7 -7 26 -8 43 0 26 -4 30
-32 33 -33 3 -33 3 -33 -42z m45 14 c-3 -5 -10 -10 -16 -10 -5 0 -9 5 -9 10 0
6 7 10 16 10 8 0 12 -4 9 -10z"/>
<path d="M7980 3455 c0 -25 5 -45 10 -45 6 0 10 20 10 45 0 25 -4 45 -10 45
-5 0 -10 -20 -10 -45z"/>
<path d="M8080 3455 c0 -43 12 -60 23 -32 4 9 8 8 16 -3 14 -20 25 -6 12 18
-7 13 -7 22 1 30 7 7 8 12 2 12 -5 0 -15 -5 -22 -12 -9 -9 -12 -7 -12 10 0 12
-4 22 -10 22 -5 0 -10 -20 -10 -45z"/>
<path d="M7527 3483 c-3 -5 -2 -23 0 -40 4 -26 10 -33 27 -32 11 0 15 3 9 6
-7 2 -13 13 -13 23 0 10 6 21 13 23 9 4 8 8 -3 16 -18 13 -27 14 -33 4z"/>
<path d="M7270 3434 c0 -24 5 -44 10 -44 6 0 10 5 10 10 0 6 9 10 21 10 17 0
20 5 17 32 -3 28 -7 33 -30 35 -27 2 -28 0 -28 -43z m40 5 c0 -11 -4 -17 -10
-14 -5 3 -10 13 -10 21 0 8 5 14 10 14 6 0 10 -9 10 -21z"/>
<path d="M7351 3461 c-6 -11 -8 -27 -5 -35 7 -19 40 -21 50 -4 5 8 2 9 -9 5
-9 -3 -19 -2 -22 3 -4 6 3 10 15 10 15 0 20 5 18 17 -5 25 -35 28 -47 4z"/>
<path d="M7420 3445 c0 -19 5 -35 10 -35 6 0 10 9 10 19 0 11 3 26 6 35 4 11
1 16 -10 16 -12 0 -16 -10 -16 -35z"/>
<path d="M7464 3468 c-5 -8 0 -9 14 -6 12 4 22 3 22 -2 0 -4 -9 -10 -20 -13
-29 -8 -26 -37 5 -37 22 0 25 4 25 35 0 28 -4 35 -19 35 -11 0 -23 -5 -27 -12z
m36 -38 c0 -5 -4 -10 -10 -10 -5 0 -10 5 -10 10 0 6 5 10 10 10 6 0 10 -4 10
-10z"/>
<path d="M7610 3465 c-18 -21 -3 -55 25 -55 15 0 26 7 30 20 7 23 -10 50 -30
50 -7 0 -18 -7 -25 -15z m40 -26 c0 -20 -15 -26 -25 -9 -9 15 3 43 15 35 5 -3
10 -15 10 -26z"/>
<path d="M7680 3444 c0 -19 5 -34 10 -34 6 0 10 11 10 24 0 14 5 28 10 31 6 4
10 -7 10 -24 0 -17 5 -31 11 -31 6 0 9 14 7 32 -3 28 -7 33 -30 35 -26 2 -28
-1 -28 -33z"/>
<path d="M7764 3469 c-5 -9 -2 -10 9 -6 24 9 21 -6 -3 -21 -26 -16 -17 -32 16
-32 22 0 25 4 22 32 -3 34 -29 50 -44 27z m26 -39 c0 -5 -5 -10 -11 -10 -5 0
-7 5 -4 10 3 6 8 10 11 10 2 0 4 -4 4 -10z"/>
<path d="M8017 3473 c-12 -12 -7 -33 7 -33 8 0 18 -5 22 -11 4 -8 0 -9 -15 -4
-12 4 -21 2 -21 -4 0 -6 14 -11 30 -11 23 0 30 4 30 20 0 11 -6 20 -14 20 -8
0 -18 5 -22 11 -4 8 1 9 16 4 15 -5 20 -4 16 4 -8 12 -39 15 -49 4z"/>
<path d="M137 3380 c-19 -45 -22 -60 -12 -60 8 0 17 5 20 10 3 6 17 10 30 10
13 0 27 -4 30 -10 8 -13 25 -13 25 1 0 23 -43 109 -55 109 -6 0 -23 -27 -38
-60z m47 4 c9 -22 8 -24 -9 -24 -8 0 -15 9 -15 20 0 24 15 27 24 4z"/>
<path d="M443 3380 c0 -36 2 -50 4 -32 2 17 2 47 0 65 -2 17 -4 3 -4 -33z"/>
<path d="M480 3380 c0 -47 3 -60 15 -60 12 0 15 13 15 60 0 47 -3 60 -15 60
-12 0 -15 -13 -15 -60z"/>
<path d="M630 3380 l0 -60 35 0 c42 0 60 25 45 64 -7 19 -17 26 -35 26 -16 0
-25 6 -25 15 0 8 -4 15 -10 15 -6 0 -10 -27 -10 -60z m58 -18 c3 -17 -2 -22
-17 -22 -16 0 -21 6 -21 26 0 33 33 30 38 -4z"/>
<path d="M730 3380 c0 -33 4 -60 10 -60 6 0 10 27 10 60 0 33 -4 60 -10 60 -6
0 -10 -27 -10 -60z"/>
<path d="M930 3421 c-14 -26 -13 -74 2 -89 7 -7 24 -12 39 -12 30 0 57 24 39
35 -5 3 -10 1 -10 -5 0 -6 -12 -10 -27 -8 -22 2 -29 9 -31 32 -4 35 13 48 53
40 27 -6 28 -5 16 10 -19 23 -68 21 -81 -3z"/>
<path d="M1250 3380 c0 -33 4 -60 10 -60 6 0 10 27 10 60 0 33 -4 60 -10 60
-6 0 -10 -27 -10 -60z"/>
<path d="M1450 3380 c0 -33 4 -60 10 -60 6 0 10 27 10 60 0 33 -4 60 -10 60
-6 0 -10 -27 -10 -60z"/>
<path d="M2470 3425 c0 -10 10 -15 35 -15 26 0 35 4 35 16 0 14 -3 14 -16 3
-12 -10 -20 -10 -35 -1 -16 10 -19 9 -19 -3z"/>
<path d="M1292 3418 c-6 -8 -7 -30 -3 -53 5 -31 11 -41 29 -43 12 -2 22 1 22
7 0 6 -4 11 -10 11 -14 0 -12 48 2 52 9 3 8 9 -4 21 -20 20 -23 21 -36 5z"/>
<path d="M5223 3413 c-27 -10 -14 -44 22 -59 20 -8 33 -19 30 -24 -8 -13 -35
-13 -35 0 0 6 -7 10 -15 10 -8 0 -15 -6 -15 -14 0 -28 69 -36 90 -11 17 21 5
45 -30 58 -31 12 -41 37 -15 37 8 0 15 -4 15 -10 0 -5 7 -10 15 -10 8 0 15 4
15 9 0 17 -48 26 -77 14z"/>
<path d="M5430 3360 c0 -47 3 -60 15 -60 12 0 15 13 15 60 0 47 -3 60 -15 60
-12 0 -15 -13 -15 -60z"/>
<path d="M6033 3412 c-21 -14 -26 -60 -9 -87 19 -29 73 -35 83 -10 8 22 -4 30
-22 15 -24 -20 -45 -5 -45 35 0 40 21 55 45 35 17 -14 31 -8 20 9 -7 13 -54
14 -72 3z"/>
<path d="M6340 3410 c0 -5 4 -10 9 -10 6 0 13 5 16 10 3 6 -1 10 -9 10 -9 0
-16 -4 -16 -10z"/>
<path d="M6540 3360 c0 -47 3 -60 15 -60 12 0 15 13 15 60 0 47 -3 60 -15 60
-12 0 -15 -13 -15 -60z"/>
<path d="M230 3405 c0 -2 7 -23 16 -45 21 -51 41 -49 60 5 16 48 16 45 5 45
-5 0 -15 -15 -21 -32 l-13 -33 -10 33 c-5 17 -16 32 -23 32 -8 0 -14 -2 -14
-5z"/>
<path d="M347 3404 c-14 -14 -7 -25 13 -19 27 9 25 -8 -2 -20 -37 -16 -29 -40
15 -42 l38 -1 -3 41 c-3 37 -6 42 -28 45 -14 2 -29 0 -33 -4z m33 -54 c0 -5
-5 -10 -11 -10 -5 0 -7 5 -4 10 3 6 8 10 11 10 2 0 4 -4 4 -10z"/>
<path d="M537 3404 c-15 -15 -6 -24 18 -18 15 4 25 2 25 -5 0 -6 -8 -11 -19
-11 -22 0 -45 -25 -36 -40 3 -5 22 -10 41 -10 35 0 35 0 32 43 -3 37 -6 42
-28 45 -14 2 -29 0 -33 -4z m43 -54 c0 -5 -8 -10 -17 -10 -15 0 -16 2 -3 10
19 12 20 12 20 0z"/>
<path d="M780 3384 c-13 -34 3 -64 35 -64 37 0 39 18 3 23 -33 4 -33 4 5 5 28
2 37 6 37 20 0 46 -64 59 -80 16z m50 -4 c0 -5 -9 -10 -21 -10 -11 0 -17 5
-14 10 3 6 13 10 21 10 8 0 14 -4 14 -10z"/>
<path d="M1046 3394 c-5 -13 -2 -15 19 -10 14 4 25 2 25 -3 0 -5 -12 -12 -26
-15 -41 -11 -27 -41 19 -43 l38 -1 -3 41 c-3 39 -5 42 -34 45 -22 2 -33 -2
-38 -14z m44 -44 c0 -5 -5 -10 -11 -10 -5 0 -7 5 -4 10 3 6 8 10 11 10 2 0 4
-4 4 -10z"/>
<path d="M1140 3344 c0 -36 4 -64 10 -64 6 0 10 10 10 23 0 18 5 23 28 22 25
0 27 3 27 40 0 39 -1 40 -37 42 l-38 1 0 -64z m68 18 c3 -18 -1 -22 -22 -22
-19 0 -26 5 -26 18 0 39 43 43 48 4z"/>
<path d="M1357 3403 c-15 -14 -6 -23 18 -17 15 4 25 2 25 -4 0 -6 -10 -12 -22
-14 -15 -2 -24 -11 -26 -26 -3 -20 0 -22 32 -20 35 2 36 3 36 45 0 41 -2 43
-28 43 -16 0 -32 -3 -35 -7z m43 -53 c0 -5 -8 -10 -17 -10 -15 0 -16 2 -3 10
19 12 20 12 20 0z"/>
<path d="M6388 3398 c-3 -7 -3 -32 0 -55 3 -34 8 -43 23 -43 10 0 19 5 19 10
0 6 -4 10 -10 10 -14 0 -12 48 2 52 9 3 8 9 -4 21 -20 20 -24 21 -30 5z"/>
<path d="M5334 3366 c-11 -44 4 -68 39 -64 30 3 32 5 32 43 0 38 -2 40 -32 43
-27 3 -33 -1 -39 -22z m54 -19 c4 -21 -27 -35 -38 -17 -12 19 0 42 19 38 9 -2
17 -11 19 -21z"/>
<path d="M5480 3372 c0 -27 23 -72 37 -72 14 0 27 23 37 63 4 16 2 27 -4 27
-5 0 -12 -11 -16 -25 -3 -14 -10 -25 -15 -25 -5 0 -11 11 -15 25 -7 29 -24 34
-24 7z"/>
<path d="M5582 3378 c-16 -16 -15 -53 2 -68 19 -15 58 -9 64 9 3 10 -2 12 -22
7 -15 -4 -26 -2 -26 4 0 5 11 10 25 10 26 0 29 7 19 34 -7 19 -45 21 -62 4z
m43 -18 c3 -5 -1 -10 -9 -10 -9 0 -16 5 -16 10 0 6 4 10 9 10 6 0 13 -4 16
-10z"/>
<path d="M5681 3341 c2 -44 2 -45 8 -11 9 50 41 55 41 6 0 -26 4 -36 16 -36
12 0 14 9 12 43 -3 41 -4 42 -40 43 l-38 1 1 -46z"/>
<path d="M5780 3369 c-17 -31 2 -69 34 -69 29 0 53 24 35 35 -6 4 -15 2 -19
-5 -11 -17 -30 -3 -30 22 0 17 4 19 26 14 19 -5 25 -3 22 6 -8 23 -55 21 -68
-3z"/>
<path d="M5870 3381 c0 -6 8 -27 17 -47 17 -35 17 -36 -2 -50 -18 -14 -18 -14
1 -14 16 0 27 15 47 60 20 48 23 60 11 60 -8 0 -20 -15 -27 -32 l-11 -33 -6
29 c-5 28 -30 50 -30 27z"/>
<path d="M6147 3384 c-14 -14 -7 -25 13 -19 11 3 20 2 20 -3 0 -6 -12 -13 -26
-16 -42 -11 -27 -41 22 -43 l40 -2 -5 42 c-5 36 -10 42 -31 45 -14 2 -29 0
-33 -4z m33 -54 c0 -5 -4 -10 -10 -10 -5 0 -10 5 -10 10 0 6 5 10 10 10 6 0
10 -4 10 -10z"/>
<path d="M6240 3331 c0 -34 4 -61 10 -61 6 0 10 6 10 14 0 9 12 16 28 18 24 3
27 7 27 43 0 39 -1 40 -37 43 l-38 3 0 -60z m55 14 c0 -11 -8 -21 -17 -23 -14
-3 -18 3 -18 23 0 20 4 26 18 23 9 -2 17 -12 17 -23z"/>
<path d="M6340 3345 c0 -33 4 -45 15 -45 11 0 15 12 15 45 0 33 -4 45 -15 45
-11 0 -15 -12 -15 -45z"/>
<path d="M6457 3384 c-13 -14 -7 -22 13 -17 11 3 20 1 20 -5 0 -5 -12 -13 -26
-16 -42 -11 -27 -41 22 -43 l40 -2 -5 42 c-5 36 -10 42 -31 45 -14 2 -29 0
-33 -4z m33 -54 c0 -5 -7 -10 -15 -10 -8 0 -15 5 -15 10 0 6 7 10 15 10 8 0
15 -4 15 -10z"/>
<path d="M3220 2943 c1 -192 1 -878 0 -1525 l0 -1178 -655 0 -655 0 -3 1178
-2 1177 -3 -1182 -2 -1183 670 0 670 0 0 1530 c0 1058 -3 1530 -10 1530 -8 0
-11 -112 -10 -347z"/>
<path d="M7172 3239 c4 -39 30 -59 56 -43 19 12 30 74 13 74 -6 0 -11 -16 -11
-36 0 -28 -3 -35 -17 -32 -12 2 -19 14 -21 36 -2 17 -8 32 -13 32 -6 0 -9 -14
-7 -31z"/>
<path d="M7380 3260 c0 -5 -3 -9 -7 -9 -26 4 -34 -3 -31 -28 2 -14 8 -28 14
-30 7 -2 10 6 7 22 -3 15 -1 25 6 25 6 0 11 -11 11 -25 0 -14 5 -25 10 -25 6
0 10 18 10 40 0 22 -4 40 -10 40 -5 0 -10 -4 -10 -10z"/>
<path d="M7717 3263 c-6 -11 4 -73 12 -73 8 0 8 67 -1 75 -3 3 -8 3 -11 -2z"/>
<path d="M7970 3230 c0 -22 5 -40 10 -40 6 0 10 7 10 15 0 8 3 15 6 15 3 0 12
-7 20 -15 23 -23 40 -18 19 5 -10 11 -13 20 -7 20 7 0 12 9 12 20 0 11 -4 20
-10 20 -5 0 -10 -7 -10 -15 0 -8 -7 -15 -15 -15 -8 0 -15 7 -15 15 0 8 -4 15
-10 15 -5 0 -10 -18 -10 -40z"/>
<path d="M8160 3230 c0 -22 5 -40 10 -40 6 0 10 5 10 11 0 8 4 8 14 0 12 -10
14 -6 14 24 0 30 -2 34 -14 24 -11 -9 -14 -8 -14 5 0 9 -4 16 -10 16 -5 0 -10
-18 -10 -40z"/>
<path d="M7270 3221 c0 -36 14 -34 23 4 4 15 5 13 6 -7 0 -16 6 -28 12 -28 6
0 9 14 7 32 -2 24 -8 32 -25 33 -20 1 -23 -3 -23 -34z"/>
<path d="M7422 3248 c-25 -25 -8 -58 28 -58 15 0 22 40 10 55 -15 18 -22 19
-38 3z"/>
<path d="M7490 3223 c0 -18 5 -33 10 -33 6 0 10 11 10 25 0 14 4 25 9 25 5 0
12 -11 15 -25 4 -14 11 -25 16 -25 12 0 30 33 30 55 0 24 -20 7 -21 -18 0 -19
-2 -19 -11 5 -7 21 -16 27 -34 26 -20 -2 -24 -8 -24 -35z"/>
<path d="M7591 3229 c-13 -30 -8 -51 8 -33 14 13 25 64 15 64 -5 0 -15 -14
-23 -31z"/>
<path d="M7630 3225 c0 -19 5 -35 10 -35 6 0 10 11 10 25 0 14 5 25 11 25 5 0
7 5 4 10 -15 24 -35 9 -35 -25z"/>
<path d="M7680 3226 c0 -20 5 -36 10 -36 6 0 10 13 10 29 0 17 -4 33 -10 36
-6 4 -10 -8 -10 -29z"/>
<path d="M7750 3225 c0 -19 5 -35 10 -35 6 0 10 16 10 35 0 19 -4 35 -10 35
-5 0 -10 -16 -10 -35z"/>
<path d="M7791 3220 c2 -30 3 -31 6 -7 5 34 33 36 33 2 0 -14 5 -25 10 -25 12
0 13 40 2 57 -4 7 -18 11 -30 10 -19 -1 -22 -7 -21 -37z"/>
<path d="M7864 3246 c-2 -6 -3 -27 -1 -46 2 -30 6 -35 27 -35 22 0 25 5 28 45
3 42 1 45 -23 46 -15 1 -28 -3 -31 -10z m36 -36 c0 -16 -5 -30 -12 -30 -6 0
-8 3 -5 7 4 3 2 12 -4 19 -11 14 -4 34 12 34 5 0 9 -13 9 -30z"/>
<path d="M8063 3225 c0 -22 2 -30 4 -17 2 12 2 30 0 40 -3 9 -5 -1 -4 -23z"/>
<path d="M8094 3245 c-8 -19 3 -35 24 -36 14 0 13 -2 -3 -9 -19 -8 -19 -9 3
-9 19 -1 22 4 22 34 0 29 -4 35 -20 35 -11 0 -23 -7 -26 -15z"/>
<path d="M6321 3184 c-10 -37 -4 -124 8 -124 4 0 7 28 6 63 0 34 4 70 9 80 5
11 4 17 -2 17 -6 0 -16 -16 -21 -36z"/>
<path d="M6384 3206 c-24 -18 -11 -44 31 -65 20 -10 24 -15 14 -21 -7 -5 -21
-4 -32 2 -24 12 -34 3 -17 -17 26 -32 80 -15 80 26 0 24 -5 30 -32 37 -17 4
-33 13 -36 20 -5 15 30 16 46 0 6 -6 15 -8 19 -4 9 8 -24 36 -42 36 -6 0 -20
-6 -31 -14z"/>
<path d="M6508 3204 c-21 -11 -28 -22 -28 -44 0 -34 30 -70 58 -70 11 0 27 9
37 20 14 15 15 20 4 20 -8 0 -21 -4 -29 -10 -21 -13 -40 7 -40 42 0 31 24 48
43 29 13 -13 37 -15 37 -3 0 7 -45 33 -53 32 -1 -1 -14 -8 -29 -16z"/>
<path d="M5210 3150 c0 -47 3 -60 15 -60 9 0 15 9 15 25 0 14 6 25 13 25 8 0
20 -11 27 -25 7 -14 22 -25 33 -25 17 0 18 2 6 18 -8 9 -18 20 -24 24 -5 4 -2
14 8 26 33 36 16 52 -54 52 l-39 0 0 -60z m76 39 c7 -12 -12 -29 -33 -29 -7 0
-13 9 -13 20 0 22 34 28 46 9z"/>
<path d="M5648 3203 c7 -3 16 -2 19 1 4 3 -2 6 -13 5 -11 0 -14 -3 -6 -6z"/>
<path d="M6217 3195 c-11 -11 -15 -26 -11 -48 9 -49 12 -57 27 -57 10 0 13 15
11 56 -3 65 -6 71 -27 49z"/>
<path d="M6610 3150 c0 -45 3 -61 13 -58 6 3 13 14 15 26 4 29 16 28 36 -3 9
-14 23 -25 31 -25 21 0 19 14 -5 35 -18 16 -18 19 -4 30 9 6 15 20 12 31 -2
15 -13 20 -51 22 l-47 3 0 -61z m68 33 c-5 -26 -38 -29 -38 -4 0 15 6 21 21
21 14 0 19 -5 17 -17z"/>
<path d="M6741 3136 c0 -57 3 -76 11 -68 18 18 21 104 4 127 -13 18 -15 14
-15 -59z"/>
<path d="M5352 3181 c-8 -5 -12 -23 -10 -47 3 -36 5 -39 32 -39 16 0 31 6 34
13 3 9 -3 11 -21 7 -14 -4 -28 -2 -31 4 -5 7 4 11 23 11 26 0 31 4 31 24 0 31
-30 45 -58 27z m38 -32 c0 -5 -10 -9 -21 -9 -18 0 -19 2 -9 15 12 15 30 12 30
-6z"/>
<path d="M5448 3179 c-37 -21 -12 -100 27 -85 10 4 15 -1 15 -14 0 -11 7 -20
15 -20 12 0 15 13 15 60 0 45 -4 60 -14 60 -8 0 -20 2 -28 5 -7 2 -21 0 -30
-6z m36 -53 c-3 -9 -10 -16 -14 -16 -14 0 -18 24 -7 44 8 17 10 17 18 3 5 -8
6 -22 3 -31z"/>
<path d="M5725 3180 c-3 -5 -12 -7 -20 -3 -12 4 -15 -5 -15 -41 0 -25 5 -46
10 -46 6 0 10 9 10 19 0 30 11 51 26 51 8 0 14 7 14 15 0 17 -16 20 -25 5z"/>
<path d="M5772 3181 c-8 -5 -12 -23 -10 -47 3 -36 5 -39 32 -39 16 0 31 6 34
13 3 9 -3 11 -22 6 -16 -4 -26 -2 -26 5 0 6 11 11 25 11 20 0 25 5 25 24 0 31
-30 45 -58 27z m34 -39 c-22 -5 -30 3 -21 18 5 8 11 7 22 -2 15 -12 14 -13 -1
-16z"/>
<path d="M5873 3183 c-20 -4 -23 -11 -23 -49 0 -32 4 -44 15 -44 10 0 15 10
15 34 0 19 5 38 10 41 6 4 10 -10 10 -34 0 -54 27 -58 32 -4 4 52 28 56 28 4
0 -23 5 -41 10 -41 13 0 13 70 0 90 -8 12 -13 13 -29 3 -13 -8 -22 -9 -26 -3
-3 6 -9 9 -13 9 -4 -1 -17 -4 -29 -6z"/>
<path d="M6015 3170 c-33 -37 2 -92 49 -74 23 9 20 27 -4 21 -11 -3 -23 -1
-26 4 -3 5 9 9 25 9 36 0 39 12 11 40 -25 25 -32 25 -55 0z m45 -21 c0 -5 -7
-9 -15 -9 -15 0 -20 12 -9 23 8 8 24 -1 24 -14z"/>
<path d="M6135 3180 c-3 -6 -11 -8 -16 -5 -5 4 -9 -15 -8 -42 1 -43 2 -45 8
-17 16 64 41 69 41 8 0 -19 5 -34 11 -34 6 0 9 19 7 47 -2 35 -7 49 -20 51 -9
2 -19 -2 -23 -8z"/>
<path d="M5540 3148 c0 -45 10 -57 48 -56 31 1 32 2 32 45 0 50 -17 59 -22 11
-2 -22 -9 -34 -20 -36 -15 -3 -18 4 -18 32 0 20 -4 36 -10 36 -5 0 -10 -15
-10 -32z"/>
<path d="M5640 3135 c0 -33 4 -45 15 -45 11 0 15 12 15 45 0 33 -4 45 -15 45
-11 0 -15 -12 -15 -45z"/>
<path d="M4999 3137 c9 -12 9 -16 -1 -20 -7 -2 -11 -6 -8 -9 3 -3 15 1 27 7
l23 12 -27 12 c-23 10 -25 10 -14 -2z"/>
<path d="M7170 3015 c0 -25 5 -45 10 -45 6 0 10 20 10 45 0 25 -4 45 -10 45
-5 0 -10 -20 -10 -45z"/>
<path d="M7550 3050 c0 -5 5 -10 10 -10 6 0 10 5 10 10 0 6 -4 10 -10 10 -5 0
-10 -4 -10 -10z"/>
<path d="M7581 3020 c-1 -43 1 -46 26 -48 15 -1 30 4 35 10 6 10 8 10 8 1 0
-7 5 -13 10 -13 6 0 10 20 10 45 0 48 -19 64 -21 18 0 -16 -3 -22 -6 -15 -2 6
-15 12 -28 12 -14 0 -25 7 -28 18 -3 9 -5 -3 -6 -28z m45 -11 c8 -14 -11 -33
-25 -25 -11 7 -4 36 9 36 5 0 12 -5 16 -11z"/>
<path d="M7790 3015 c0 -25 5 -45 10 -45 6 0 10 7 10 15 0 19 9 19 30 0 14
-13 16 -10 18 30 l2 45 -35 0 c-35 0 -35 0 -35 -45z m60 15 c0 -5 -9 -10 -20
-10 -11 0 -20 5 -20 10 0 6 9 10 20 10 11 0 20 -4 20 -10z"/>
<path d="M7880 3050 c0 -5 5 -10 10 -10 6 0 10 5 10 10 0 6 -4 10 -10 10 -5 0
-10 -4 -10 -10z"/>
<path d="M7992 3015 c-1 -31 2 -45 7 -36 6 9 11 10 15 2 4 -6 12 -11 18 -11 7
0 6 5 -2 15 -7 8 -9 22 -6 31 4 11 2 15 -8 11 -10 -4 -16 2 -19 16 -2 12 -5 0
-5 -28z"/>
<path d="M7288 3040 c-2 -7 -2 -26 0 -42 4 -27 7 -29 46 -27 40 2 42 4 38 31
-4 29 -34 39 -48 17 -4 -8 0 -9 15 -4 25 8 29 -10 4 -19 -10 -3 -24 -9 -32
-12 -10 -5 -13 0 -9 19 5 28 -6 59 -14 37z"/>
<path d="M7210 3001 c0 -17 5 -31 10 -31 6 0 10 11 10 25 0 14 5 25 10 25 6 0
10 -11 10 -25 0 -14 5 -25 11 -25 6 0 9 12 7 28 -2 21 -9 28 -30 30 -25 3 -28
0 -28 -27z"/>
<path d="M7390 2998 c0 -33 17 -38 22 -6 5 32 26 33 31 1 4 -27 4 -27 6 4 1
29 -1 32 -29 31 -26 -1 -30 -5 -30 -30z"/>
<path d="M7470 3004 c0 -17 6 -28 20 -31 11 -3 20 -9 20 -13 0 -5 -10 -6 -22
-2 -14 3 -19 2 -14 -6 10 -17 43 -15 50 4 3 9 6 29 6 45 0 26 -4 29 -30 29
-26 0 -30 -4 -30 -26z m40 -5 c0 -11 -4 -17 -10 -14 -5 3 -10 13 -10 21 0 8 5
14 10 14 6 0 10 -9 10 -21z"/>
<path d="M7550 3000 c0 -16 5 -30 10 -30 6 0 10 14 10 30 0 17 -4 30 -10 30
-5 0 -10 -13 -10 -30z"/>
<path d="M7694 3016 c-9 -24 4 -48 23 -44 12 2 18 12 18 28 0 29 -32 41 -41
16z"/>
<path d="M7880 3000 c0 -16 5 -30 10 -30 6 0 10 14 10 30 0 17 -4 30 -10 30
-5 0 -10 -13 -10 -30z"/>
<path d="M7919 3028 c-1 -2 -3 -13 -4 -26 -3 -26 16 -38 42 -27 16 6 15 8 -7
27 -16 13 -19 18 -7 14 9 -3 17 -1 17 4 0 8 -37 15 -41 8z"/>
<path d="M2330 2970 c0 -5 7 -10 15 -10 12 0 15 -13 15 -55 0 -30 5 -55 10
-55 6 0 10 25 10 55 0 48 2 55 20 55 11 0 20 5 20 10 0 6 -20 10 -45 10 -25 0
-45 -4 -45 -10z"/>
<path d="M2430 2970 c0 -5 5 -10 10 -10 6 0 10 5 10 10 0 6 -4 10 -10 10 -5 0
-10 -4 -10 -10z"/>
<path d="M2695 2960 c-10 -11 -13 -20 -7 -20 7 0 12 -18 12 -45 0 -25 5 -45
10 -45 6 0 10 28 10 65 0 36 -2 65 -3 65 -2 0 -12 -9 -22 -20z"/>
<path d="M2430 2895 c0 -25 5 -45 10 -45 6 0 10 20 10 45 0 25 -4 45 -10 45
-5 0 -10 -20 -10 -45z"/>
<path d="M2475 2930 c-5 -8 -1 -10 11 -6 11 3 26 1 34 -4 11 -7 5 -10 -22 -10
-21 0 -38 -4 -38 -10 0 -5 18 -10 41 -10 36 0 40 2 37 23 -3 25 -51 37 -63 17z"/>
<path d="M2560 2895 c0 -25 5 -45 10 -45 6 0 10 16 10 35 0 24 5 35 15 35 8 0
15 5 15 10 0 6 -11 10 -25 10 -23 0 -25 -4 -25 -45z"/>
<path d="M2470 2864 c0 -20 61 -15 68 6 5 13 3 13 -12 1 -14 -12 -22 -12 -37
-3 -16 10 -19 9 -19 -4z"/>
<path d="M5475 2624 c-3 -26 -9 -53 -12 -60 -3 -8 -1 -14 5 -14 5 0 14 21 20
48 l10 47 1 -47 c1 -35 5 -48 15 -48 8 0 18 5 22 11 5 8 9 8 14 -1 12 -20 27
-3 34 37 4 21 9 46 12 56 4 13 -1 17 -20 17 -18 0 -26 -5 -26 -17 -1 -10 -7
-29 -15 -43 -14 -25 -14 -24 -15 18 0 34 -3 42 -19 42 -15 0 -20 -10 -26 -46z
m82 -36 c-3 -7 -5 -2 -5 12 0 14 2 19 5 13 2 -7 2 -19 0 -25z"/>
<path d="M5620 2660 c0 -5 4 -10 9 -10 6 0 13 5 16 10 3 6 -1 10 -9 10 -9 0
-16 -4 -16 -10z"/>
<path d="M5770 2660 c0 -5 7 -10 15 -10 8 0 15 5 15 10 0 6 -7 10 -15 10 -8 0
-15 -4 -15 -10z"/>
<path d="M6291 2649 c-23 -25 -28 -68 -9 -87 19 -19 63 -14 83 8 16 17 16 20
2 20 -9 0 -19 -4 -22 -10 -3 -5 -15 -10 -26 -10 -14 0 -19 7 -19 29 0 37 21
54 55 45 21 -5 27 -4 23 7 -8 24 -64 23 -87 -2z"/>
<path d="M6610 2660 c0 -5 4 -10 9 -10 6 0 13 5 16 10 3 6 -1 10 -9 10 -9 0
-16 -4 -16 -10z"/>
<path d="M6805 2624 c-3 -26 -9 -53 -12 -60 -3 -8 -1 -14 5 -14 5 0 16 27 24
60 11 46 12 60 2 60 -6 0 -15 -20 -19 -46z"/>
<path d="M6905 2658 c-7 -23 -25 -93 -25 -100 0 -20 29 -5 34 17 4 14 13 25
20 25 8 0 17 -11 20 -25 4 -14 13 -25 21 -25 18 0 19 12 3 28 -9 9 -7 16 6 31
30 33 17 56 -32 59 -28 2 -44 -1 -47 -10z m63 -20 c-3 -7 -14 -14 -26 -16 -16
-3 -20 1 -16 12 7 19 48 22 42 4z"/>
<path d="M7335 2660 c-3 -5 1 -10 9 -10 9 0 16 5 16 10 0 6 -4 10 -9 10 -6 0
-13 -4 -16 -10z"/>
<path d="M6660 2647 c-21 -17 -19 -91 3 -95 14 -3 16 2 10 28 -4 21 -2 35 7
40 8 5 9 13 4 23 -7 12 -12 13 -24 4z"/>
<path d="M7900 2647 c-9 -7 -15 -27 -14 -52 1 -33 5 -41 23 -43 11 -2 21 1 21
7 0 6 -4 11 -9 11 -6 0 -6 12 0 32 16 57 10 70 -21 45z"/>
<path d="M5210 2625 c41 -7 84 -14 95 -14 18 0 18 1 3 9 -9 6 -52 12 -95 15
l-78 4 75 -14z"/>
<path d="M5616 2613 c-4 -16 -9 -36 -12 -45 -3 -10 -1 -18 4 -18 6 0 13 12 16
28 4 15 9 35 12 45 3 9 1 17 -4 17 -6 0 -13 -12 -16 -27z"/>
<path d="M5667 2633 c-12 -21 -17 -83 -7 -83 6 0 13 6 15 13 21 60 27 69 35
61 6 -6 6 -22 1 -42 -8 -25 -7 -32 4 -32 15 0 38 67 29 82 -6 10 -71 11 -77 1z"/>
<path d="M5760 2593 c0 -54 15 -48 25 10 6 30 4 37 -9 37 -12 0 -16 -10 -16
-47z"/>
<path d="M5816 2613 c-4 -16 -9 -36 -12 -45 -4 -12 0 -18 10 -18 11 0 16 9 16
29 0 16 7 35 17 42 15 13 16 10 11 -28 -8 -55 14 -59 30 -6 14 45 9 53 -33 53
-28 0 -34 -4 -39 -27z"/>
<path d="M5905 2595 c0 -28 4 -45 11 -45 15 0 24 23 24 61 0 21 -5 29 -17 29
-15 0 -18 -9 -18 -45z"/>
<path d="M5967 2603 c-8 -46 -3 -53 36 -50 30 2 32 5 35 47 3 47 -13 47 -20 0
-1 -14 -11 -26 -20 -28 -14 -3 -16 3 -11 32 3 21 1 36 -4 36 -6 0 -13 -16 -16
-37z"/>
<path d="M6076 2631 c-3 -3 -7 -24 -11 -45 -6 -30 -5 -38 6 -34 7 2 17 19 21
36 12 45 31 41 22 -4 -9 -47 16 -43 28 4 5 18 15 32 24 32 12 0 14 -8 8 -37
-5 -29 -4 -35 5 -27 7 6 14 27 18 47 l5 36 -61 -1 c-34 -1 -63 -4 -65 -7z"/>
<path d="M6405 2631 c-3 -5 -1 -12 4 -15 5 -4 12 -2 16 4 4 6 11 8 16 5 17
-11 9 -24 -18 -27 -20 -2 -29 -9 -31 -25 -3 -20 1 -22 32 -21 31 1 35 5 41 35
3 18 3 38 0 43 -8 13 -52 13 -60 1z m40 -51 c-3 -5 -14 -10 -23 -10 -15 0 -15
2 -2 10 20 13 33 13 25 0z"/>
<path d="M6491 2593 c-7 -26 -14 -56 -17 -65 -3 -12 0 -18 9 -18 8 0 18 11 21
24 4 18 11 22 29 19 30 -6 49 18 45 54 -3 24 -8 28 -39 31 -36 3 -37 2 -48
-45z m59 1 c0 -15 -6 -24 -15 -24 -16 0 -19 17 -9 44 9 22 24 10 24 -20z"/>
<path d="M6600 2611 c0 -16 -3 -36 -6 -45 -3 -9 -2 -16 4 -16 5 0 13 12 16 28
4 15 9 35 12 45 4 11 0 17 -10 17 -11 0 -16 -9 -16 -29z"/>
<path d="M6717 2634 c-11 -11 3 -24 18 -17 8 3 15 0 15 -6 0 -6 -8 -11 -19
-11 -22 0 -45 -25 -36 -40 3 -5 21 -10 39 -10 31 0 34 3 40 35 4 20 4 40 1 45
-7 11 -48 14 -58 4z m28 -54 c-3 -5 -12 -10 -18 -10 -7 0 -6 4 3 10 19 12 23
12 15 0z"/>
<path d="M7019 2614 c-14 -40 -3 -64 31 -64 41 0 47 18 8 23 l-33 4 33 1 c29
2 32 5 32 32 0 27 -3 30 -30 30 -24 0 -33 -6 -41 -26z m51 -4 c0 -5 -9 -10
-21 -10 -11 0 -17 5 -14 10 3 6 13 10 21 10 8 0 14 -4 14 -10z"/>
<path d="M7113 2614 c-20 -30 -9 -57 26 -62 14 -2 21 -11 21 -25 0 -33 16 -8
29 45 15 65 15 65 -24 66 -27 1 -39 -4 -52 -24z m51 -3 c9 -14 -4 -41 -20 -41
-8 0 -14 8 -14 18 0 29 22 43 34 23z"/>
<path d="M7226 2624 c-3 -9 -6 -28 -6 -44 0 -25 3 -28 34 -28 36 0 46 14 46
66 0 33 -16 27 -26 -10 -6 -18 -17 -34 -26 -36 -14 -3 -15 3 -8 32 8 36 -2 50
-14 20z"/>
<path d="M7327 2623 c-17 -61 -17 -73 -2 -73 8 0 15 3 15 8 0 4 4 24 9 45 7
28 6 37 -4 37 -8 0 -16 -8 -18 -17z"/>
<path d="M7368 2593 c-4 -50 5 -56 20 -14 6 16 20 34 31 41 20 10 21 8 21 -30
0 -38 2 -40 29 -40 42 0 48 18 9 23 l-33 4 33 1 c28 2 32 5 32 32 l0 29 -69
-1 -69 -1 -4 -44z m127 17 c3 -5 -3 -10 -14 -10 -12 0 -21 5 -21 10 0 6 6 10
14 10 8 0 18 -4 21 -10z"/>
<path d="M7537 2622 c-17 -59 -17 -72 -3 -72 8 0 17 13 21 30 10 43 25 47 25
6 0 -43 16 -47 25 -7 3 16 13 36 22 43 15 12 16 9 11 -29 -6 -45 5 -59 16 -20
16 59 11 65 -53 66 -49 0 -61 -3 -64 -17z"/>
<path d="M7688 2616 c-19 -42 10 -77 50 -61 15 7 14 9 -8 15 l-25 8 27 1 c33
1 42 14 28 41 -15 29 -58 26 -72 -4z m52 -6 c0 -5 -7 -10 -16 -10 -8 0 -12 5
-9 10 3 6 10 10 16 10 5 0 9 -4 9 -10z"/>
<path d="M7786 2597 c-9 -51 -1 -58 14 -13 6 20 16 36 21 36 14 0 24 -4 23
-10 -14 -56 -14 -60 1 -60 11 0 15 11 15 45 0 44 0 44 -34 43 -32 -1 -34 -4
-40 -41z"/>
<path d="M1669 2513 c-11 -22 -15 -133 -20 -548 -3 -286 -9 -533 -13 -550 -6
-30 -6 -30 6 -5 9 19 14 160 18 545 4 384 9 528 18 549 16 37 9 44 -9 9z"/>
<path d="M4932 2515 c33 -41 38 -96 39 -455 1 -195 4 -365 7 -378 8 -28 4 695
-4 756 -3 28 -15 53 -32 71 -15 15 -20 18 -10 6z"/>
<path d="M5200 1790 c0 -5 9 -10 20 -10 17 0 20 -7 20 -50 0 -38 4 -50 15 -50
11 0 15 12 15 50 0 38 4 50 15 50 8 0 15 5 15 10 0 6 -22 10 -50 10 -27 0 -50
-4 -50 -10z"/>
<path d="M5500 1740 c0 -62 16 -84 22 -28 4 46 28 49 28 4 0 -25 4 -36 15 -36
10 0 15 10 15 34 0 37 -21 62 -45 52 -10 -4 -15 1 -15 14 0 11 -4 20 -10 20
-6 0 -10 -27 -10 -60z"/>
<path d="M5710 1790 c0 -5 5 -10 10 -10 6 0 10 5 10 10 0 6 -4 10 -10 10 -5 0
-10 -4 -10 -10z"/>
<path d="M5950 1740 c0 -33 4 -60 10 -60 6 0 10 27 10 60 0 33 -4 60 -10 60
-6 0 -10 -27 -10 -60z"/>
<path d="M5312 1758 c-36 -36 6 -99 51 -76 26 13 21 29 -8 22 -15 -4 -25 -2
-25 5 0 6 11 11 25 11 14 0 25 6 25 13 0 18 -21 37 -40 37 -9 0 -21 -5 -28
-12z m43 -18 c3 -5 -1 -10 -9 -10 -9 0 -16 5 -16 10 0 6 4 10 9 10 6 0 13 -4
16 -10z"/>
<path d="M5404 1746 c-12 -51 18 -86 57 -66 29 16 23 30 -11 24 -27 -6 -30 -4
-30 21 0 25 2 26 31 20 24 -5 30 -4 27 6 -3 8 -19 15 -36 17 -26 3 -32 -1 -38
-22z"/>
<path d="M5605 1761 c-9 -9 -5 -81 4 -81 6 0 11 15 13 32 2 22 9 34 21 36 14
3 17 -4 17 -32 0 -25 4 -36 15 -36 16 0 21 55 7 78 -8 11 -67 14 -77 3z"/>
<path d="M5710 1725 c0 -25 5 -45 10 -45 6 0 10 20 10 45 0 25 -4 45 -10 45
-5 0 -10 -20 -10 -45z"/>
<path d="M5762 1749 c-18 -49 10 -89 52 -73 27 10 19 33 -11 31 -22 -2 -28 2
-28 18 0 16 6 20 28 18 37 -3 31 21 -6 25 -21 3 -29 -2 -35 -19z"/>
<path d="M5857 1764 c-15 -15 -6 -24 18 -18 15 4 25 2 25 -4 0 -6 -12 -12 -27
-14 -33 -4 -42 -32 -15 -47 10 -5 29 -7 41 -4 19 5 22 11 19 47 -3 36 -6 41
-28 44 -14 2 -29 0 -33 -4z m41 -55 c-2 -6 -8 -10 -13 -10 -5 0 -11 4 -13 10
-2 6 4 11 13 11 9 0 15 -5 13 -11z"/>
<path d="M4990 1633 c0 -4 7 -14 15 -23 14 -15 14 -18 0 -30 -8 -7 -15 -20
-15 -29 1 -13 3 -12 12 4 6 11 16 25 22 30 8 7 5 16 -11 32 -13 12 -23 19 -23
16z"/>
<path d="M139 1553 c-13 -32 -25 -61 -27 -65 -2 -4 4 -8 13 -8 9 0 19 9 22 20
3 13 14 20 28 20 15 0 26 -8 30 -20 8 -25 25 -26 25 -2 -1 23 -42 105 -56 109
-5 2 -21 -22 -35 -54z m44 -3 c3 -13 0 -20 -9 -20 -8 0 -14 9 -14 20 0 11 4
20 9 20 5 0 11 -9 14 -20z"/>
<path d="M1200 1600 c0 -5 5 -10 11 -10 5 0 7 5 4 10 -3 6 -8 10 -11 10 -2 0
-4 -4 -4 -10z"/>
<path d="M542 1588 c-14 -19 0 -102 18 -106 12 -2 15 8 13 50 0 29 -2 56 -2
61 -1 11 -17 8 -29 -5z"/>
<path d="M5210 1530 c0 -47 3 -60 15 -60 9 0 15 9 15 25 0 21 5 25 30 25 23 0
31 5 36 24 9 36 -2 46 -52 46 l-44 0 0 -60z m68 27 c2 -12 -3 -17 -17 -17 -15
0 -21 6 -21 21 0 25 33 22 38 -4z"/>
<path d="M252 1567 c-15 -18 -8 -69 12 -82 11 -7 21 -7 34 1 28 18 27 42 -2
50 -14 3 -26 11 -26 16 0 6 11 7 27 3 23 -5 25 -4 14 9 -16 19 -45 21 -59 3z
m48 -57 c0 -5 -6 -10 -14 -10 -8 0 -18 5 -21 10 -3 6 3 10 14 10 12 0 21 -4
21 -10z"/>
<path d="M352 1567 c-15 -18 -8 -69 12 -82 11 -7 21 -7 34 1 28 18 27 42 -2
50 -14 3 -26 10 -26 15 0 5 12 6 28 3 24 -7 26 -6 13 9 -16 20 -44 22 -59 4z
m38 -57 c0 -5 -4 -10 -9 -10 -6 0 -13 5 -16 10 -3 6 1 10 9 10 9 0 16 -4 16
-10z"/>
<path d="M453 1574 c-7 -3 -13 -23 -13 -45 0 -33 4 -40 26 -45 34 -9 46 6 42
52 -3 39 -22 52 -55 38z m45 -32 c2 -7 -6 -12 -17 -12 -21 0 -27 11 -14 24 9
9 26 2 31 -12z m-6 -34 c-9 -9 -15 -9 -24 0 -9 9 -7 12 12 12 19 0 21 -3 12
-12z"/>
<path d="M594 1566 c-3 -9 -4 -23 -1 -31 4 -8 1 -17 -5 -21 -7 -5 -5 -12 7
-21 25 -17 50 -17 65 2 16 19 -3 45 -31 45 -11 0 -19 5 -19 11 0 7 10 9 26 5
19 -5 25 -3 22 6 -7 20 -57 22 -64 4z m56 -56 c0 -5 -6 -10 -14 -10 -8 0 -18
5 -21 10 -3 6 3 10 14 10 12 0 21 -4 21 -10z"/>
<path d="M742 1568 c-7 -7 -12 -25 -12 -40 0 -38 42 -60 67 -35 20 19 10 35
-10 18 -18 -14 -40 9 -31 33 7 18 34 22 34 5 0 -5 5 -7 10 -4 8 5 7 11 -1 21
-14 17 -41 18 -57 2z"/>
<path d="M848 1569 c-28 -16 -23 -67 7 -81 21 -9 28 -8 45 7 25 23 26 47 2 68
-21 19 -30 20 -54 6z m40 -36 c4 -24 -24 -39 -32 -17 -7 19 4 46 18 41 6 -2
12 -13 14 -24z"/>
<path d="M930 1565 c0 -24 33 -86 44 -82 13 4 38 76 33 91 -3 6 -11 -5 -20
-24 l-15 -35 -12 33 c-12 33 -30 43 -30 17z"/>
<path d="M1034 1555 c-15 -23 -15 -27 0 -50 18 -28 28 -30 58 -14 17 9 18 13
7 20 -10 6 -11 9 -1 9 17 0 15 25 -4 44 -22 23 -41 20 -60 -9z m46 -16 c0 -5
-7 -9 -15 -9 -15 0 -20 12 -9 23 8 8 24 -1 24 -14z m0 -23 c0 -11 -19 -15 -25
-6 -3 5 1 10 9 10 9 0 16 -2 16 -4z"/>
<path d="M1130 1529 c0 -27 5 -49 10 -49 6 0 10 16 10 35 0 24 5 35 15 35 8 0
15 6 15 14 0 8 -10 14 -25 14 -23 0 -25 -4 -25 -49z"/>
<path d="M1200 1530 c0 -32 4 -49 10 -45 6 3 10 24 10 45 0 21 -4 42 -10 45
-6 4 -10 -13 -10 -45z"/>
<path d="M1240 1529 c0 -36 4 -49 14 -49 10 0 16 13 18 38 4 48 22 48 26 -1 4
-43 25 -46 30 -4 5 43 -13 65 -53 65 l-35 0 0 -49z"/>
<path d="M1357 1574 c-4 -4 -7 -24 -7 -45 0 -40 22 -58 46 -38 11 9 14 8 14
-4 0 -21 -19 -32 -33 -18 -15 15 -27 14 -27 -4 0 -10 11 -15 35 -15 31 0 35 3
40 33 4 19 5 47 3 62 -2 24 -8 29 -34 32 -16 2 -33 1 -37 -3z m51 -37 c4 -20
-25 -34 -39 -20 -14 14 1 45 20 41 9 -2 17 -11 19 -21z"/>
<path d="M5330 1515 c0 -25 5 -45 10 -45 6 0 10 13 10 29 0 18 8 34 23 44 22
16 22 16 -10 16 -32 1 -33 0 -33 -44z"/>
<path d="M5400 1539 c-17 -31 2 -69 34 -69 31 0 48 22 44 57 -2 23 -8 29 -35
31 -24 2 -34 -2 -43 -19z m58 -22 c4 -20 -25 -34 -40 -19 -15 15 -1 44 19 40
10 -2 19 -11 21 -21z"/>
<path d="M5490 1555 c0 -13 41 -85 48 -85 4 0 14 17 22 38 8 20 16 40 18 45 2
4 -3 7 -12 7 -9 0 -16 -8 -16 -20 0 -11 -5 -20 -11 -20 -6 0 -13 9 -16 20 -5
17 -33 30 -33 15z"/>
<path d="M5600 1515 c0 -25 5 -45 10 -45 6 0 10 20 10 45 0 25 -4 45 -10 45
-5 0 -10 -20 -10 -45z"/>
<path d="M5647 1553 c-15 -14 -6 -33 18 -39 14 -3 25 -11 25 -16 0 -6 -11 -7
-26 -4 -19 5 -25 3 -22 -6 6 -18 59 -23 69 -6 15 24 10 35 -23 46 -25 8 -27
11 -9 9 13 -1 26 4 28 11 5 13 -48 18 -60 5z"/>
<path d="M5740 1515 c0 -25 5 -45 10 -45 6 0 10 20 10 45 0 25 -4 45 -10 45
-5 0 -10 -20 -10 -45z"/>
<path d="M5789 1539 c-16 -31 3 -69 35 -69 44 0 66 59 32 82 -21 15 -55 8 -67
-13z m54 -12 c3 -8 1 -20 -4 -28 -11 -19 -34 3 -26 25 8 20 23 21 30 3z"/>
<path d="M5901 1510 c1 -46 3 -46 13 3 9 41 36 35 36 -8 0 -19 5 -35 10 -35 6
0 10 20 10 45 l0 46 -35 -3 c-35 -2 -35 -3 -34 -48z"/>
<path d="M5997 1553 c-15 -14 -5 -32 23 -42 40 -13 38 -24 -2 -15 -30 6 -31 5
-19 -10 20 -24 65 -17 69 10 2 16 -4 23 -23 28 -14 4 -23 11 -20 17 5 7 11 6
20 -1 13 -11 30 2 18 14 -8 8 -58 8 -66 -1z"/>
<path d="M4976 1498 c-3 -13 -6 -183 -6 -378 0 -201 -4 -370 -10 -389 -5 -19
-19 -44 -31 -57 l-21 -22 29 -14 c26 -12 28 -17 31 -83 1 -39 8 -80 14 -93 9
-17 9 -25 0 -34 -7 -7 -12 -44 -12 -90 l0 -79 -32 -14 c-24 -10 -27 -14 -13
-14 43 0 55 21 55 100 0 85 4 93 45 104 29 8 30 9 5 13 -44 7 -50 20 -50 103
0 74 -1 79 -26 92 -22 12 -24 16 -12 28 8 8 18 23 23 34 7 15 25 798 19 813
-1 1 -4 -8 -8 -20z"/>
<path d="M370 1340 c0 -47 3 -60 15 -60 10 0 15 11 15 35 0 24 5 35 15 35 10
0 15 -11 15 -35 0 -19 5 -35 11 -35 6 0 9 17 7 43 -2 35 -7 43 -25 45 -13 2
-23 10 -23 18 0 8 -7 14 -15 14 -12 0 -15 -13 -15 -60z"/>
<path d="M580 1390 c0 -5 7 -10 16 -10 8 0 12 5 9 10 -3 6 -10 10 -16 10 -5 0
-9 -4 -9 -10z"/>
<path d="M820 1340 c0 -47 3 -60 15 -60 12 0 15 13 15 60 0 47 -3 60 -15 60
-12 0 -15 -13 -15 -60z"/>
<path d="M125 1373 c-14 -11 -16 -17 -7 -20 6 -3 12 -20 12 -39 0 -21 5 -34
13 -34 9 0 12 15 11 50 -1 28 -3 52 -5 54 -2 3 -13 -3 -24 -11z"/>
<path d="M179 1349 c-16 -31 3 -69 36 -69 17 0 29 8 36 24 15 32 -4 66 -36 66
-15 0 -29 -9 -36 -21z m51 -9 c0 -5 -7 -10 -15 -10 -8 0 -15 5 -15 10 0 6 7
10 15 10 8 0 15 -4 15 -10z m-3 -36 c-3 -3 -12 -4 -19 -1 -8 3 -5 6 6 6 11 1
17 -2 13 -5z"/>
<path d="M279 1349 c-26 -49 37 -95 72 -53 12 15 10 16 -19 10 -30 -7 -32 -6
-32 19 0 25 2 26 32 19 29 -6 31 -5 19 10 -19 23 -58 20 -72 -5z"/>
<path d="M480 1324 c0 -53 15 -58 24 -9 4 19 11 35 16 35 6 0 10 -16 10 -35 0
-25 4 -35 16 -35 12 0 14 9 12 43 -3 41 -4 42 -40 44 l-38 1 0 -44z"/>
<path d="M580 1325 c0 -33 4 -45 15 -45 11 0 15 12 15 45 0 33 -4 45 -15 45
-11 0 -15 -12 -15 -45z"/>
<path d="M642 1358 c-16 -16 -15 -53 2 -68 19 -15 58 -10 64 9 3 10 -3 12 -27
6 -29 -6 -31 -5 -31 20 0 25 2 26 31 20 24 -5 30 -4 27 6 -6 18 -50 23 -66 7z"/>
<path d="M727 1363 c-15 -15 -5 -22 23 -16 17 3 30 2 30 -1 0 -4 -13 -12 -30
-17 -19 -7 -30 -18 -30 -30 0 -15 7 -19 38 -19 l37 0 -3 45 c-4 41 -6 45 -31
45 -15 0 -31 -3 -34 -7z m43 -58 c-7 -8 -17 -12 -23 -8 -6 4 -3 9 9 14 27 11
28 11 14 -6z"/>
<path d="M1636 1350 c4 -14 10 -259 13 -545 5 -382 10 -528 19 -549 7 -16 15
-26 18 -23 3 3 0 16 -8 29 -10 18 -14 136 -18 543 -4 387 -9 526 -18 545 l-13
25 7 -25z"/>
<path d="M500 1180 c0 -5 5 -10 10 -10 6 0 10 5 10 10 0 6 -4 10 -10 10 -5 0
-10 -4 -10 -10z"/>
<path d="M640 1180 c0 -5 5 -10 10 -10 6 0 10 5 10 10 0 6 -4 10 -10 10 -5 0
-10 -4 -10 -10z"/>
<path d="M160 1165 c0 -3 7 -17 16 -31 12 -18 14 -28 6 -36 -16 -16 -33 1 -30
30 2 18 -2 27 -14 30 -16 3 -18 -5 -18 -62 0 -52 3 -66 15 -66 9 0 15 9 15 25
0 18 4 23 15 19 40 -16 64 65 26 86 -22 11 -31 13 -31 5z"/>
<path d="M253 1162 c-20 -3 -23 -10 -23 -48 0 -24 5 -44 10 -44 6 0 10 13 10
29 0 18 8 34 22 43 24 16 15 26 -19 20z"/>
<path d="M319 1163 c-40 -10 -26 -93 15 -93 41 0 60 54 30 84 -16 16 -17 17
-45 9z m39 -46 c4 -20 -25 -34 -40 -19 -15 15 -1 44 19 40 10 -2 19 -11 21
-21z"/>
<path d="M558 1159 c-26 -15 -22 -36 10 -54 l27 -15 -27 6 c-35 8 -38 -13 -3
-22 53 -13 78 26 30 48 -14 6 -25 16 -25 21 0 5 5 5 13 -1 7 -6 18 -7 26 -3
11 7 9 11 -7 20 -25 13 -22 13 -44 0z"/>
<path d="M700 1150 c-11 -11 -20 -26 -20 -33 0 -18 32 -47 52 -47 17 0 48 31
48 48 0 15 -36 52 -50 52 -5 0 -19 -9 -30 -20z m47 -26 c8 -21 -13 -42 -28
-27 -13 13 -5 43 11 43 6 0 13 -7 17 -16z"/>
<path d="M818 1163 c-26 -4 -28 -8 -28 -49 0 -32 4 -44 15 -44 10 0 15 10 15
34 0 60 33 53 43 -9 3 -16 4 -8 3 19 -1 52 -4 55 -48 49z"/>
<path d="M918 1162 c-36 -7 -29 -44 12 -62 22 -9 21 -9 -10 -4 -31 6 -33 5
-21 -10 16 -19 54 -21 69 -3 14 16 4 32 -26 41 -27 9 -20 26 8 19 11 -3 20 -1
20 5 0 11 -28 20 -52 14z"/>
<path d="M400 1134 c15 -39 30 -64 38 -64 6 0 42 72 42 85 0 16 -29 1 -34 -17
l-7 -23 -11 23 c-16 32 -40 30 -28 -4z"/>
<path d="M500 1115 c0 -25 5 -45 10 -45 6 0 10 20 10 45 0 25 -4 45 -10 45 -5
0 -10 -20 -10 -45z"/>
<path d="M640 1121 c0 -22 5 -43 10 -46 6 -4 10 12 10 39 0 25 -4 46 -10 46
-5 0 -10 -18 -10 -39z"/>
<path d="M5237 492 c-10 -10 -17 -33 -17 -50 0 -25 6 -35 30 -47 27 -14 33
-14 60 0 21 11 30 23 30 40 0 14 5 25 10 25 6 0 10 -15 10 -34 0 -33 23 -56
35 -36 4 6 1 10 -4 10 -15 0 -14 57 2 63 10 4 10 6 0 6 -7 1 -13 9 -13 19 -1
16 -1 16 -14 0 -17 -23 -22 -22 -46 2 -25 25 -62 26 -83 2z m71 -55 c-2 -27
-7 -32 -28 -32 -20 0 -26 6 -28 28 -5 38 14 60 40 46 14 -8 18 -19 16 -42z"/>
<path d="M5410 450 c0 -47 3 -60 15 -60 11 0 15 11 15 36 0 49 32 44 41 -6 l6
-35 2 43 c1 39 -1 42 -24 42 -18 0 -25 5 -25 20 0 11 -7 20 -15 20 -12 0 -15
-13 -15 -60z"/>
<path d="M5730 450 l0 -60 48 2 c36 1 39 2 15 5 -33 4 -33 5 -33 59 0 41 -4
54 -15 54 -12 0 -15 -13 -15 -60z"/>
<path d="M5830 495 c0 -8 7 -15 15 -15 8 0 15 7 15 15 0 8 -7 15 -15 15 -8 0
-15 -7 -15 -15z"/>
<path d="M5980 449 c0 -44 3 -59 13 -56 6 2 19 1 28 -4 23 -12 41 12 37 48 -2
22 -9 29 -30 31 -20 2 -28 9 -28 23 0 10 -4 19 -10 19 -6 0 -10 -27 -10 -61z
m60 -19 c0 -32 -26 -43 -36 -15 -9 21 3 45 21 45 10 0 15 -10 15 -30z"/>
<path d="M6087 504 c-8 -8 1 -24 14 -24 5 0 9 7 9 15 0 15 -12 20 -23 9z"/>
<path d="M6130 450 c0 -47 3 -60 15 -60 12 0 15 13 15 60 0 47 -3 60 -15 60
-12 0 -15 -13 -15 -60z"/>
<path d="M6180 495 c0 -8 5 -15 10 -15 6 0 10 7 10 15 0 8 -4 15 -10 15 -5 0
-10 -7 -10 -15z"/>
<path d="M6282 498 c6 -18 28 -21 28 -4 0 9 -7 16 -16 16 -9 0 -14 -5 -12 -12z"/>
<path d="M6235 490 c-5 -8 -8 -30 -6 -50 2 -38 24 -70 35 -51 4 6 2 11 -3 11
-6 0 -11 14 -11 30 0 17 5 30 13 30 8 0 9 3 1 8 -6 4 -13 14 -16 22 -4 12 -6
12 -13 0z"/>
<path d="M5514 446 c-11 -45 26 -73 66 -50 25 15 25 15 -7 9 -21 -4 -33 -3
-33 4 0 6 14 11 30 11 31 0 35 6 24 34 -4 10 -18 16 -40 16 -27 0 -35 -5 -40
-24z m56 4 c0 -5 -7 -10 -16 -10 -8 0 -12 5 -9 10 3 6 10 10 16 10 5 0 9 -4 9
-10z"/>
<path d="M5620 430 c0 -48 17 -54 22 -7 2 19 8 31 16 30 6 -2 12 2 12 7 0 6
-11 10 -25 10 -22 0 -25 -4 -25 -40z"/>
<path d="M5830 430 c0 -29 4 -40 15 -40 11 0 15 11 15 40 0 29 -4 40 -15 40
-11 0 -15 -11 -15 -40z"/>
<path d="M5885 460 c-4 -7 2 -9 19 -4 15 3 26 2 26 -4 0 -5 -11 -13 -25 -16
-47 -12 -24 -55 26 -48 28 4 30 7 27 41 -3 32 -6 36 -35 39 -17 2 -34 -2 -38
-8z m45 -45 c0 -8 -7 -15 -15 -15 -26 0 -18 20 13 29 1 1 2 -6 2 -14z"/>
<path d="M6080 430 c0 -29 4 -40 15 -40 11 0 15 11 15 40 0 29 -4 40 -15 40
-11 0 -15 -11 -15 -40z"/>
<path d="M6180 430 c0 -22 5 -40 10 -40 6 0 10 18 10 40 0 22 -4 40 -10 40 -5
0 -10 -18 -10 -40z"/>
<path d="M6280 430 c0 -29 4 -40 15 -40 11 0 15 11 15 40 0 29 -4 40 -15 40
-11 0 -15 -11 -15 -40z"/>
<path d="M6326 454 c-11 -29 -6 -43 20 -60 23 -15 27 -16 41 -2 13 14 12 15
-11 11 -15 -3 -26 -1 -26 6 0 6 14 11 30 11 31 0 35 6 24 34 -4 10 -18 16 -39
16 -21 0 -35 -6 -39 -16z m64 -4 c0 -5 -9 -10 -21 -10 -11 0 -17 5 -14 10 3 6
13 10 21 10 8 0 14 -4 14 -10z"/>
<path d="M6427 463 c-13 -12 -7 -23 26 -44 l32 -20 -32 6 c-38 8 -44 -2 -10
-14 13 -5 31 -4 44 2 18 8 20 14 12 28 -5 11 -16 19 -24 19 -7 0 -17 5 -20 10
-4 7 2 9 19 4 16 -4 26 -2 26 5 0 12 -62 16 -73 4z"/>
</g>
</svg>
